<?xml version="1.0" standalone="no"?>
<!DOCTYPE svg PUBLIC "-//W3C//DTD SVG 1.1//EN" "http://www.w3.org/Graphics/SVG/1.1/DTD/svg11.dtd" >
<!--
2013-9-30: Created.
-->
<svg>
<metadata>
Created by iconfont
</metadata>
<defs>

<font id="iconfont" horiz-adv-x="1024" >
  <font-face
    font-family="iconfont"
    font-weight="500"
    font-stretch="normal"
    units-per-em="1024"
    ascent="896"
    descent="-128"
  />
    <missing-glyph />
    
    <glyph glyph-name="x" unicode="x" horiz-adv-x="1001"
d="M281 543q-27 -1 -53 -1h-83q-18 0 -36.5 -6t-32.5 -18.5t-23 -32t-9 -45.5v-76h912v41q0 16 -0.5 30t-0.5 18q0 13 -5 29t-17 29.5t-31.5 22.5t-49.5 9h-133v-97h-438v97zM955 310v-52q0 -23 0.5 -52t0.5 -58t-10.5 -47.5t-26 -30t-33 -16t-31.5 -4.5q-14 -1 -29.5 -0.5
t-29.5 0.5h-32l-45 128h-439l-44 -128h-29h-34q-20 0 -45 1q-25 0 -41 9.5t-25.5 23t-13.5 29.5t-4 30v167h911zM163 247q-12 0 -21 -8.5t-9 -21.5t9 -21.5t21 -8.5q13 0 22 8.5t9 21.5t-9 21.5t-22 8.5zM316 123q-8 -26 -14 -48q-5 -19 -10.5 -37t-7.5 -25t-3 -15t1 -14.5
t9.5 -10.5t21.5 -4h37h67h81h80h64h36q23 0 34 12t2 38q-5 13 -9.5 30.5t-9.5 34.5q-5 19 -11 39h-368zM336 498v228q0 11 2.5 23t10 21.5t20.5 15.5t34 6h188q31 0 51.5 -14.5t20.5 -52.5v-227h-327z" />
    

    
    <glyph glyph-name="lianxiwomen" unicode="&#58960;" d="M245.803 676.4808c0 0 111.4122-113.5964 110.3196-128.8878 0 0-7.5213-24.3804-13.1072-38.229-5.5859-13.8496-32.768-68.8128-6.5536-113.5964 0 0 136.661-170.3946 188.9628-170.3946 52.3008 0 92.844 24.0302 92.844 24.0302 15.2914 7.6462 39.3206 19.6618 61.1656-3.2758 0 0 100.4892-88.4736 103.765-99.3956 3.2768-10.923-45.3294-85.7436-73.1812-113.5974-27.8538-27.8538-63.3518-50.2436-81.921-49.153-18.5692 1.0916-215.1772 111.4112-316.759 223.915-101.5808 112.5048-216.2688 291.6372-223.915 310.2065-7.6452 18.5692 33.8606 70.998 33.8606 70.998S178.0828 651.359 245.803 676.4808zM815.5505 193.1732c-4.6971 0-8.9303 3.2512-9.9881 8.0271-0.043 0.1843-5.9361 24.3599-33.535 52.6817-26.8206 27.5282-57.7331 26.5687-58.0434 26.5564-5.6863-0.2243-10.4233 4.1533-10.6598 9.8017-0.2365 5.6515 4.1523 10.4233 9.8017 10.6598 1.6415 0.0666 40.4296 1.2872 73.5693-32.725 31.9959-32.8346 38.5966-61.3468 38.8628-62.5449 1.2227-5.5224-2.262-10.9885-7.7834-12.2132C817.0291 193.2521 816.2836 193.1732 815.5505 193.1732zM866.5958 192.4892c-4.6971-0.001-8.9303 3.2512-9.9881 8.0282-0.0809 0.3523-9.4249 39.4086-53.8163 84.9664-43.3152 44.4539-94.4394 43.1862-94.9535 43.1626-5.6197-0.1802-10.3916 4.2004-10.6097 9.8376s4.1492 10.3895 9.7864 10.625c2.4422 0.0973 60.502 1.9231 110.4445-49.3343 48.7977-50.0797 58.7438-93.0263 59.1442-94.8296 1.2227-5.5214-2.262-10.9885-7.7844-12.2122C868.0745 192.5681 867.33 192.4892 866.5958 192.4892zM919.1014 191.4345c-4.6971-0.001-8.9303 3.2522-9.9881 8.0282-0.1147 0.5089-12.8676 54.274-73.8529 116.8599-60.2296 61.8097-130.6501 59.605-131.3454 59.5722-5.6883-0.2304-10.4233 4.1523-10.6598 9.8028-0.2365 5.6504 4.1523 10.4233 9.8017 10.6598 3.2614 0.1321 80.3236 2.5498 146.8713-65.7418 65.3978-67.115 78.6493-124.3218 79.1808-126.7241 1.2227-5.5214-2.262-10.9885-7.7844-12.2122C920.5801 191.5144 919.8346 191.4345 919.1014 191.4345z"  horiz-adv-x="1024" />

    
    <glyph glyph-name="zhengque" unicode="&#58939;" d="M914.6296 489.7933c36.9674 42.6885 43.7606 104.7132 15.0436 137.8232-28.7109 33.1192-82.4535 25.3071-119.4271-17.3763L478.679 227.5971c-37.0125-42.6711-97.5186-42.6711-134.4932 0L213.8696 377.9776c-36.9797 42.7192-90.7305 50.519-119.4271 17.3763-28.7078-33.1131-21.93-95.1101 15.0477-137.7864l234.9005-271.0733c36.994-42.6732 90.753-50.5231 119.4291-17.3691 28.7191 33.0977 52.1452 60.2726 52.097 60.3177-0.0584 0.0584 30.1343 35.0792 67.1396 77.7523L914.6296 489.7933z"  horiz-adv-x="1024" />

    
    <glyph glyph-name="xinxi" unicode="&#59275;" d="M952.052364 591.338345 70.718645 591.338345l0.852414-0.854461 0-581.127404 880.206036 0L951.777095 591.063075 952.052364 591.338345zM510.86413 150.152157 648.306432 287.593436l251.668857-247.537769-775.788895 0 249.532193 247.567445L510.86413 150.152157zM510.890736 193.592528 144.921647 560.427334l732.803895 0L510.890736 193.592528zM352.036775 309.355065 102.270245 61.556353l0 498.15569L352.036775 309.355065zM921.078932 62.359648 670.01485 309.301853l251.064083 251.063059L921.078932 62.359648z"  horiz-adv-x="1024" />

    
    <glyph glyph-name="saoyisao" unicode="&#59062;" d="M954.484 341.196l-884.284 0c-19.021 0-34.454 15.452-34.454 34.479 0 19.026 15.435 34.466 34.454 34.466l884.284 0c19.014 0 34.454-15.44 34.454-34.466 0-19.027-15.44-34.479-34.454-34.479M908.551 543.088c-19.014 0-34.454 15.427-34.454 34.479l0 149.371-149.297 0c-19.013 0-34.453 15.445-34.453 34.473 0 19.027 15.441 34.473 34.453 34.473l183.75 0c19.014 0 34.454-15.445 34.454-34.473l0-183.843c0-19.053-15.44-34.479-34.454-34.479M299.885 726.939l-149.297 0 0-149.371c0-19.052-15.435-34.479-34.454-34.479-19.013 0-34.453 15.427-34.453 34.479l0 183.842c0 19.027 15.44 34.473 34.453 34.473l183.75 0c19.014 0 34.454-15.445 34.454-34.473 0-19.026-15.44-34.471-34.454-34.471M116.134 203.318c19.021 0 34.454-15.453 34.454-34.479l0-149.371 149.296 0c19.014 0 34.454-15.441 34.454-34.479 0-19.026-15.44-34.466-34.454-34.466l-183.749 0c-19.013 0-34.453 15.441-34.453 34.466l0 183.851c0 19.026 15.44 34.479 34.453 34.479M724.8 19.469l149.296 0 0 149.371c0 19.026 15.441 34.479 34.454 34.479s34.454-15.453 34.454-34.479l0-183.851c0-19.026-15.441-34.466-34.454-34.466l-183.749 0c-19.013 0-34.453 15.441-34.453 34.466-0.001 19.04 15.44 34.479 34.453 34.479z"  horiz-adv-x="1024" />

    
    <glyph glyph-name="iconfont28shixin" unicode="&#59031;" d="M646.464646 502.989899c-4.783838 31.806061-27.410101 108.606061-134.464646 108.606061-107.054545 0-129.680808-76.8-134.464646-108.606061L77.317172 502.989899l0-515.878788 869.365657 0L946.682828 502.989899 646.464646 502.989899zM512 584.444444c83.135354 0 102.658586-55.208081 107.183838-81.454545L404.686869 502.989899C409.082828 529.236364 428.347475 584.444444 512 584.444444zM919.531313 312.929293 593.454545 312.929293l0-81.454545L430.545455 231.474747l0 81.454545L104.468687 312.929293l0 27.151515 815.062626 0L919.531313 312.929293zM457.69697 312.929293l108.606061 0 0-54.30303-108.606061 0 0 54.30303Z"  horiz-adv-x="1024" />

    
    <glyph glyph-name="iconfontlist" unicode="&#59005;" d="M885.649481 548.194325 605.413878 548.194325c-17.222963 0-31.139992 13.94987-31.139992 31.139992 0 17.184041 13.915813 31.133911 31.139992 31.133911L885.649481 610.468227c17.218097 0 31.139992-13.94987 31.139992-31.133911C916.789473 562.144195 902.867579 548.194325 885.649481 548.194325L885.649481 548.194325zM885.649481 392.506527 605.413878 392.506527c-17.222963 0-31.139992 13.94987-31.139992 31.139992 0 17.184041 13.915813 31.133911 31.139992 31.133911L885.649481 454.78043c17.218097 0 31.139992-13.94987 31.139992-31.133911C916.789473 406.456397 902.867579 392.506527 885.649481 392.506527L885.649481 392.506527zM885.649481 143.404834 605.413878 143.404834c-17.222963 0-31.139992 13.921895-31.139992 31.139992 0 17.218097 13.915813 31.135127 31.139992 31.135127L885.649481 205.679953c17.218097 0 31.139992-13.915813 31.139992-31.135127C916.789473 157.326729 902.867579 143.404834 885.649481 143.404834L885.649481 143.404834zM885.649481-12.282963 605.413878-12.282963c-17.222963 0-31.139992 13.921895-31.139992 31.139992 0 17.218097 13.915813 31.135127 31.139992 31.135127L885.649481 49.992156c17.218097 0 31.139992-13.915813 31.139992-31.135127C916.789473 1.638931 902.867579-12.282963 885.649481-12.282963L885.649481-12.282963zM387.446096 330.232624 200.624388 330.232624C149.120918 330.232624 107.210493 372.14305 107.210493 423.646519L107.210493 610.468227c0 51.50347 41.910425 93.413895 93.413895 93.413895l186.821708 0c51.50347 0 93.413895-41.910425 93.413895-93.413895l0-186.821708C480.859991 372.14305 438.949565 330.232624 387.446096 330.232624L387.446096 330.232624zM200.624388 641.60822c-17.157282 0-31.139992-13.98271-31.139992-31.139992l0-186.821708c0-17.157282 13.98271-31.139992 31.139992-31.139992l186.821708 0c17.157282 0 31.139992 13.98271 31.139992 31.139992L418.586088 610.468227c0 17.157282-13.98271 31.139992-31.139992 31.139992L200.624388 641.60822 200.624388 641.60822zM387.446096-105.696858 200.624388-105.696858C149.120918-105.696858 107.210493-63.781568 107.210493-12.282963L107.210493 174.544827c0 51.499821 41.910425 93.415111 93.413895 93.415111l186.821708 0c51.50347 0 93.413895-41.915291 93.413895-93.415111l0-186.82779C480.859991-63.781568 438.949565-105.696858 387.446096-105.696858L387.446096-105.696858zM200.624388 205.678737c-17.157282 0-31.139992-13.94987-31.139992-31.135127l0-186.82779c0-17.185257 13.98271-31.133911 31.139992-31.133911l186.821708 0c17.157282 0 31.139992 13.948654 31.139992 31.133911L418.586088 174.544827c0 17.185257-13.98271 31.135127-31.139992 31.135127L200.624388 205.679953 200.624388 205.678737zM200.624388 205.678737"  horiz-adv-x="1024" />

    
    <glyph glyph-name="xinxi1" unicode="&#58983;" d="M957.468213 599.502281c-0.116657 0.23536 0 0.470721-0.116657 0.822738 0 0 0 0-0.11768 0.11768-1.762133 4.465708-4.935406 8.107655-8.754385 10.988262-0.881067 0.644683-1.703805 1.233084-2.6432 1.819438-4.054339 2.410909-8.579399 4.113691-13.630439 4.113691L89.912287 617.364091c-5.052063 0-9.516748-1.702782-13.57211-4.113691-0.998747-0.586354-1.762133-1.174756-2.6432-1.819438-3.759627-2.880607-6.992251-6.522554-8.812713-10.988262 0-0.11768-0.11768-0.11768-0.11768-0.11768-0.116657-0.352017 0-0.586354-0.116657-0.822738-0.99977-2.937912-1.763157-5.933129-1.763157-9.16473L62.886771 11.024469c0-15.040555 12.103666-27.084868 27.02654-27.084868l421.145759 0 421.147806 0c15.040555 0 27.084868 12.044314 27.084868 27.084868L959.291744 590.337551C959.289698 593.568129 958.526311 596.564369 957.468213 599.502281M863.697549 563.251659 511.058047 233.23234 158.419568 563.251659 863.697549 563.251659zM511.058047 38.051009 116.997156 38.051009 116.997156 527.882104 492.551554 176.359029c5.228071-4.817726 11.92561-7.284917 18.505469-7.284917 6.640234 0 13.279445 2.467191 18.566868 7.284917l375.553375 351.523075 0-489.830071L511.058047 38.052033z"  horiz-adv-x="1024" />

    
    <glyph glyph-name="dengpaotishi" unicode="&#58914;" d="M504.603543-78.541565c-29.15297 0-53.401234 4.859681-72.205509 14.486946-14.366196 7.355525-21.508873 15.46625-24.460088 19.59222-13.867846 15.7231-20.066011 33.679054-20.066011 58.002019l0.00921 99.921757c0.00921 1.292436-0.057305 18.423605-9.259898 41.974997-12.772908 32.689517-36.192294 61.701271-69.605288 86.228897l-0.518816 0.394996c-39.271422 31.001061-71.731718 70.971401-93.871971 115.593691-23.248494 46.856168-35.036981 97.326653-35.036981 150.010549 0 90.50734 35.244712 175.59832 99.243305 239.59589 63.998593 63.99757 149.087527 99.242282 239.594867 99.242282s175.59525-35.244712 239.59282-99.242282c63.996546-63.998593 99.241258-149.087527 99.241258-239.59589 0-53.150524-11.971659-104.036471-35.582403-151.244656-22.499433-44.985564-55.443753-85.146239-95.27083-116.14116l-0.572028-0.445138-0.603751-0.399089c-89.865727-59.358923-94.763271-113.971751-94.904487-116.187209 0-12.08013 0.013303-17.45658 0.022513-21.61018 0.01535-6.166443 0.023536-9.564843-0.022513-27.367301-0.080841-30.652114-13.596669-53.782927-39.084157-66.889433-16.180518-8.320503-36.524868-12.364609-62.199621-12.364609-1.65264 0-3.327792-0.005117-5.019317-0.00921-17.451464-0.053212-37.22481-0.105401-55.349609 4.793166-9.93835 2.687202-15.817244 12.921287-13.131065 22.859637 2.686179 9.939373 12.921287 15.812127 22.859637 13.132088 13.293771-3.593851 29.668717-3.546779 45.515636-3.502777 1.727341 0.005117 3.437286 0.010233 5.125741 0.010233 56.628742 0 63.950498 22.48306 64.001663 42.069141 0.047072 17.709337 0.038886 21.071921 0.023536 27.179013-0.011256 4.204765-0.023536 9.657964-0.023536 21.998013l0.004093 0.36225c0.040932 2.097778 0.824785 21.287839 15.57472 48.878221 18.729573 35.031864 50.835805 67.780733 95.441723 97.348142 35.214013 27.541263 64.346517 63.131853 84.269265 102.964046 20.998243 41.983183 31.644721 87.258343 31.644721 134.567835 0 80.549547-31.366382 156.277276-88.322581 213.233476s-132.681882 88.322581-213.229382 88.322581c-80.548524 0-156.275229-31.366382-213.231429-88.322581-56.957223-56.9562-88.323605-132.683928-88.323605-213.233476 0-92.535533 41.724287-178.590468 114.478288-236.144278 93.355201-68.683289 93.956905-151.293775 93.805456-158.89694l0-99.081623c0-15.694447 3.061732-24.89704 11.296277-33.957393l1.841951-2.026146 0.24764-0.641613c2.556219-2.87549 20.391423-20.231787 75.916017-17.968234l1.653663 0.067538 0.517793-0.091074c2.074242-0.00921 13.631462 0.162706 47.923476 5.074575 5.081739 0.87595 37.96773 6.062066 62.167898-1.74883 9.797134-3.160993 15.176654-13.666254 12.014638-23.465434-3.160993-9.797134-13.661138-15.181771-23.465434-12.014638-13.623275 4.3951-37.323047 1.738597-44.549635 0.459464l-0.598634-0.096191c-36.087916-5.176906-50.071396-5.600555-54.904471-5.467525C511.611144-78.473003 508.071528-78.541565 504.603543-78.541565zM285.930171 519.030369c-1.134847 0-2.284019 0.104377-3.440355 0.319272-10.120498 1.888-16.794501 11.623735-14.905478 21.744233 8.314363 44.562938 25.111934 86.170568 49.925063 123.669624 5.681396 8.585539 17.246803 10.940167 25.833365 5.258771 8.585539-5.681396 10.940167-17.246803 5.258771-25.833365-22.045085-33.314757-36.972053-70.302159-44.366464-109.933785C302.561967 525.290957 294.730605 519.030369 285.930171 519.030369z"  horiz-adv-x="1024" />

    
    <glyph glyph-name="dunpai" unicode="&#58996;" d="M512-211.999999l-10.871556 4.210371C151.981835-72.837802 111.60626 103.557902 111.60626 224.496104L111.60626 686.411537l31.169316-1.068303c242.693341-8.263639 346.035962 101.268855 347.010003 102.337159L512.031421 812l22.214422-24.319607c0.816938-0.879779 98.755201-102.777048 321.087941-102.777048 0 0 0 0 0.031421 0 8.452163 0 17.092851 0.125683 25.859221 0.43989l31.169316 1.068303 0-461.915434c0-120.938202-40.375575-297.333906-389.522184-432.285731L512-211.999999zM171.871127 624.638478l0-400.142375c0-65.04081 0.031421-236.754833 340.128873-371.832341 340.128873 135.077508 340.128873 306.791531 340.128873 371.832341L852.128873 624.638478c-188.335563 0.722676-296.705492 67.742989-340.128873 102.368579C468.545198 692.412888 360.175269 625.423995 171.871127 624.638478zM242.064928 274.61209l61.930163 50.178828 123.923166-91.434182c0 0 171.11703 177.024118 336.326971 259.629088l23.596932-26.581896c0 0-206.496717-171.11703-312.698619-398.319975L242.064928 274.61209z"  horiz-adv-x="1024" />

    
    <glyph glyph-name="bofang" unicode="&#59057;" d="M512 832C264.576 832 64 631.424 64 384s200.576-448 448-448 448 200.576 448 448S759.424 832 512 832zM414.656 169.728 414.656 598.272l311.616-190.464L414.656 169.728z"  horiz-adv-x="1024" />

    
    <glyph glyph-name="shipin" unicode="&#59089;" d="M707.904 126.656c6.592-18.048 17.408-40.576 36.608-64.064C794.176 1.664 885.056-64 885.056-64L157.568-64c0 0 93.696 69.12 144.448 131.328 14.464 17.728 23.68 34.752 29.888 49.536-114.944 65.024-192.96 190.08-192.96 333.888C138.944 661.312 305.92 832 512 832c206.016 0 373.056-170.688 373.056-381.248C885.056 313.664 814.08 193.856 707.904 126.656zM512 698.56c-133.952 0-242.496-110.912-242.496-247.808S378.048 202.944 512 202.944c133.888 0 242.432 110.912 242.432 247.808S645.888 698.56 512 698.56zM512 317.248c-72.128 0-130.56 59.84-130.56 133.504S439.872 584.192 512 584.192c72.064 0 130.56-59.776 130.56-133.44S584.064 317.248 512 317.248z"  horiz-adv-x="1024" />

    
    <glyph glyph-name="bianji" unicode="&#58927;" d="M770.079358-14.016857 237.489414-14.016857 237.489414 614.066999 634.99066 614.066999 634.99066 653.019149 198.537264 653.019149 198.537264-52.971054 809.032532-52.971054 809.032532 338.033221 770.079358 338.033221ZM394.962935 183.07908l112.408139 37.007869 366.06835 372.694257-77.274968 75.940576L429.974333 296.212744 394.962935 183.07908zM454.351534 281.650073l342.150614 348.054067 37.922704-37.267788L492.379639 244.20116l-55.246255-18.188244L454.351534 281.650073z"  horiz-adv-x="1024" />

    
    <glyph glyph-name="wodezhanghu" unicode="&#58888;" d="M646.190023 596.665942l-106.706103-218.202385c-8.558019-17.32195-15.515699-33.567375-20.862203-48.739886l-1.603951 0c-7.485105 18.918676-14.168235 34.4994-20.053002 46.763847l-106.31234 220.182036L301.188796 596.669555l152.039399-282.526607L328.871403 314.142948l0-62.348183 147.628533 0 0-86.725351L328.871403 165.069414l0-62.709433 147.628533 0 0-124.696366 78.232357 0 0 124.696366 143.217667 0 0 62.709433-143.217667 0 0 86.725351 143.217667 0 0 62.348183-121.958089 0 154.04795 282.526607L646.190023 596.669555 646.190023 596.665942zM646.190023 596.665942M512 779.588626c-260.927454 0-472.450321-211.522867-472.450321-472.453934S251.072546-165.315628 512-165.315628s472.450321 211.522867 472.450321 472.450321S772.927454 779.588626 512 779.588626zM512-122.482184c-237.269174 0-429.613265 192.344091-429.613265 429.613265 0 237.272786 192.344091 429.616877 429.613265 429.616877s429.62049-192.344091 429.62049-429.616877C941.62049 69.861906 749.269174-122.482184 512-122.482184z"  horiz-adv-x="1024" />

    
    <glyph glyph-name="iconfontqian" unicode="&#58985;" d="M497.102103 812C223.018605 812 0 588.803468 0 314.433901 0 40.053907 223.018605-183.136667 497.102103-183.136667 771.185602-183.136667 994.204207 40.059865 994.204207 314.433901 994.204207 588.803468 771.185602 812 497.102103 812L497.102103 812ZM497.102103-129.759333C252.418576-129.759333 53.365419 69.510974 53.365419 314.433901 53.365419 559.35239 252.418576 758.600293 497.102103 758.600293 741.785631 758.600293 940.844746 559.35239 940.844746 314.433901 940.844746 69.510974 741.785631-129.759333 497.102103-129.759333L497.102103-129.759333ZM617.355792 574.701746 538.41768 429.104275C517.352107 389.655575 504.50463 363.410145 499.78728 350.42176L498.424584 350.42176C484.54535 382.029382 445.37375 456.765991 380.872456 574.701746L306.621874 574.701746 444.692387 337.305003 331.490863 337.305003 331.490863 284.824599 464.185003 284.824599 464.185003 212.537026 331.490863 212.537026 331.490863 159.440268 464.185003 159.440268 464.185003 54.161586 530.025162 54.161586 530.025162 159.440268 658.031771 159.440268 658.031771 212.537026 530.025162 212.537026 530.025162 284.824599 658.025813 284.824599 658.025813 337.305003 548.172955 337.305003 687.58829 574.701746 617.355792 574.701746 617.355792 574.701746Z"  horiz-adv-x="1024" />

    
    <glyph glyph-name="lianxiwomen1" unicode="&#58961;" d="M956.928 372.325565C953.945043 615.63687 756.023652 812 512 812S70.054957 615.63687 67.072 372.325565C26.223304 339.69113 0 289.559652 0 233.217391c0-98.348522 79.738435-178.086957 178.086957-178.086957 42.918957 0 82.276174 15.204174 113.018435 40.470261L207.204174 408.722087C197.698783 410.280348 188.015304 411.304348 178.086957 411.304348c-6.544696 0-12.978087-0.400696-19.344696-1.090783C180.201739 586.386087 330.017391 722.956522 512 722.956522c181.960348 0 331.798261-136.570435 353.257739-312.742957C858.913391 410.903652 852.457739 411.304348 845.913043 411.304348c-9.928348 0-19.634087-1.024-29.139478-2.582261l-83.878957-312.965565c23.730087-19.478261 52.580174-32.946087 84.23513-38.110609-42.006261-45.122783-95.432348-79.515826-155.870609-98.103652l-7.368348-7.368348C635.035826-13.165913 598.750609 10.608696 556.521739 10.608696c-61.484522 0-111.304348-49.819826-111.304348-111.304348s49.819826-111.304348 111.304348-111.304348c50.465391 0 92.560696 33.792 106.22887 79.805217 122.835478 30.118957 225.747478 110.970435 284.850087 219.358609C993.747478 119.330783 1024 172.712348 1024 233.217391 1024 289.537391 997.754435 339.69113 956.928 372.325565z"  horiz-adv-x="1024" />

    
    <glyph glyph-name="fenxiang" unicode="&#58990;" d="M810.666667 129.333333c-44.352 0-83.434667-22.592-106.389333-56.874667l-290.858667 161.536c8.512 20.309333 13.248 42.602667 13.248 66.005333 0 30.464-8.064 58.986667-22.058667 83.733333l220.501333 135.466667c23.445333-29.525333 59.584-48.512 100.224-48.512 70.677333 0 128 57.322667 128 128s-57.322667 128-128 128-128-57.322667-128-128c0-14.741333 2.624-28.864 7.210667-42.048l-225.493333-138.56c-31.061333 32.384-74.666667 52.608-123.050667 52.608-94.250667 0-170.666667-76.416-170.666667-170.666667s76.416-170.666667 170.666667-170.666667c55.552 0 104.789333 26.688 135.957333 67.797333L686.869333 33.333333c-2.645333-10.24-4.202667-20.928-4.202667-32 0-70.677333 57.322667-128 128-128s128 57.322667 128 128S881.344 129.333333 810.666667 129.333333zM725.333333 684c47.125333 0 85.333333-38.208 85.333333-85.333333s-38.208-85.333333-85.333333-85.333333-85.333333 38.208-85.333333 85.333333S678.208 684 725.333333 684zM256 172c-70.677333 0-128 57.322667-128 128s57.322667 128 128 128 128-57.322667 128-128S326.677333 172 256 172zM810.666667-84c-47.125333 0-85.333333 38.208-85.333333 85.333333s38.208 85.333333 85.333333 85.333333 85.333333-38.208 85.333333-85.333333S857.792-84 810.666667-84z"  horiz-adv-x="1024" />

    
    <glyph glyph-name="yijianfankui" unicode="&#58962;" d="M777.802762-2.383912c0-18.883069-15.313777-34.229592-34.233686-34.229592L224.069265-36.613504c-18.922978 0-34.232662 15.346523-34.232662 34.229592l3.069919 581.365834c0 18.922978 15.309684 34.232662 34.232662 34.232662l284.593733 0.071631-0.016373 93.971232-342.347089 0c-37.806047 0-68.461231-30.655184-68.461231-68.461231l0-693.830255c0-37.806047 30.655184-68.444858 68.461231-68.444858l650.387837 0c37.806047 0 68.461231 30.638811 68.461231 68.444858L888.218524 322.994714 777.802762 322.994714 777.802762-2.383912 777.802762-2.383912zM384.17166 288.743632 384.17166 160.884592 512 160.884592ZM420.583964 321.48943 831.547827 736.610986 959.52557 608.697711 548.839023 195.921573Z"  horiz-adv-x="1024" />

    
    <glyph glyph-name="wyiyuedu16px" unicode="&#59173;" d="M115.008 300 341.888 73.184 908.992 640.288 965.696 583.584 341.888-40.288 58.304 243.296Z"  horiz-adv-x="1024" />

    
    <glyph glyph-name="gerenziliao" unicode="&#58936;" d="M602.07397 252.706881 422.704766 252.706881c-166.691463 0-302.260092-133.494387-302.260092-297.631678l0-17.660218c0-85.802178 133.402289-85.802178 302.260092-85.802178l179.370227 0c162.214499 0 302.288744 0 302.288744 85.802178l0 17.660218C904.363737 119.181795 768.756223 252.706881 602.07397 252.706881zM503.424182 275.415069c131.998313 0 239.397369 105.805768 239.397369 235.882312S635.422496 747.177646 503.424182 747.177646c-131.98808 0-239.393275-105.832374-239.393275-235.879242C264.030907 381.255629 371.436102 275.415069 503.424182 275.415069z"  horiz-adv-x="1024" />

    
    <glyph glyph-name="youxuanzhuan" unicode="&#59261;" d="M839.68 68.32c-14.08 5.12-29.44 1.28-39.68-10.24l0 0c-81.92-104.96-225.28-149.76-357.12-102.4C277.76 14.56 192 197.6 250.88 362.72c58.88 165.12 241.92 250.88 407.04 192 5.12-2.56 11.52-3.84 16.64-6.4-6.4-17.92-12.8-35.84-17.92-51.2-7.68-21.76-14.08-38.4-15.36-43.52 0 0 0 0 0 0-3.84-5.12-3.84-12.8-1.28-19.2 5.12-10.24 16.64-14.08 26.88-10.24 0 0 0 0 0 0l1.28 0 19.2 8.96 130.56 61.44 17.92 8.96 15.36 7.68c5.12 2.56 8.96 6.4 10.24 11.52 1.28 5.12 1.28 10.24-1.28 15.36l-7.68 15.36L844.8 572.64 783.36 703.2 774.4 722.4l0 1.28c0 0 0 0 0 0-5.12 10.24-16.64 14.08-26.88 8.96-6.4-2.56-10.24-8.96-11.52-15.36 0 0 0 0 0 0-2.56-5.12-7.68-21.76-15.36-43.52-6.4-16.64-12.8-35.84-20.48-56.32-5.12 2.56-11.52 5.12-16.64 6.4C478.72 696.8 256 590.56 183.04 387.04c-72.96-203.52 33.28-427.52 235.52-499.2 160-57.6 332.8-3.84 433.92 120.32 3.84 3.84 7.68 8.96 8.96 14.08C869.12 40.16 858.88 61.92 839.68 68.32z"  horiz-adv-x="1024" />

    
    <glyph glyph-name="lishi" unicode="&#58882;" d="M511.800455 831.560362c-247.062955 0-447.311699-200.305025-447.311699-447.369004S264.7375-63.12034 511.800455-63.12034c247.063979 0 447.312722 200.305025 447.312722 447.311699S758.864434 831.560362 511.800455 831.560362L511.800455 831.560362zM510.836501-23.842779c-224.619804 0-406.728398 182.112688-406.728398 406.728398 0 224.619804 182.108594 406.733515 406.728398 406.733515s406.728398-182.112688 406.728398-406.733515C917.564899 158.269909 735.456305-23.842779 510.836501-23.842779L510.836501-23.842779zM510.836501-23.842779M542.348192 386.174526c0-15.954367-13.053294-29.006637-29.006637-29.006637l0 0c-15.954367 0-29.006637 13.053294-29.006637 29.006637L484.334917 676.246017c0 15.954367 13.053294 29.006637 29.006637 29.006637l0 0c15.954367 0 29.006637-13.053294 29.006637-29.006637L542.348192 386.174526zM513.341554 357.167888c-15.954367 0-29.006637 13.053294-29.006637 29.006637l0 0c0 15.954367 13.053294 29.006637 29.006637 29.006637l232.057193 0c15.954367 0 29.006637-13.053294 29.006637-29.006637l0 0c0-15.954367-13.053294-29.006637-29.006637-29.006637L513.341554 357.167888z"  horiz-adv-x="1024" />

    
    <glyph glyph-name="book" unicode="&#58969;" d="M946.802 831.673c-13.881 9.444-31.63 11.378-47.289 5.134l-387.285-154.951-387.285 154.951c-15.644 6.244-33.365 4.309-47.317-5.134s-22.286-25.173-22.286-42.041v-649.785c0-20.779 12.644-39.41 31.872-47.147l405.262-162.105c0 0 8.334-2.674 9.87-2.972 3.3-0.64 6.585-0.981 9.884-0.981s6.585 0.341 9.842 0.981c1.536 0.299 9.87 3.086 9.87 3.086l405.205 162.005c19.328 7.737 31.972 26.368 31.972 47.147v649.771c0 16.868-8.377 32.597-22.315 42.041zM919.438 141.326l-369.138-146.972v631.367l369.138 146.987v-631.381zM849.195 349.497l-203.108-81.308v-54.812l203.108 81.294v54.827zM849.195 560.37l-203.108-81.223v-53.12l203.108 81.223v53.12zM481.564-8.875l-371.783 147.484v631.424l371.783-147.541v-631.367zM376.448 467.982l-203.108 81.308v-54.827l203.108-81.308v54.827zM376.448 255.403l-203.108 81.209v-53.092l203.108-81.252v53.134z"  horiz-adv-x="1024" />

    
    <glyph glyph-name="lishi1" unicode="&#58948;" d="M746.666667 384 512 384l0 149.333333c0 12.8-8.533333 21.333333-21.333333 21.333333s-21.333333-8.533333-21.333333-21.333333l0-170.666667c0-12.8 8.533333-21.333333 21.333333-21.333333l256 0c12.8 0 21.333333 8.533333 21.333333 21.333333C768 375.466667 759.466667 384 746.666667 384zM512 810.666667C277.333333 810.666667 85.333333 618.666667 85.333333 384s192-426.666667 426.666667-426.666667 426.666667 192 426.666667 426.666667S746.666667 810.666667 512 810.666667zM512 0c-211.2 0-384 172.8-384 384S300.8 768 512 768s384-172.8 384-384S723.2 0 512 0z"  horiz-adv-x="1024" />

    
    <glyph glyph-name="logo-qq" unicode="&#59045;" d="M511.5 832.6c-247.4 0-448-200.6-448-448s200.6-448 448-448 448 200.6 448 448c0 247.5-200.6 448-448 448v0zM758.1 245c-11.6-10.8-31.4 1-50.5 27.4-8.3-22.4-19.1-43-31.6-61.5 27-9.6 44.4-24.7 44.4-41.7 0-29.3-51.9-53-115.9-53-38 0-71.5 8.3-92.8 21.2-21-12.9-54.8-21.2-92.8-21.2-64 0-115.9 23.7-115.9 53 0 16.8 17.4 32 44.4 41.7-12.7 18.5-23.3 39.1-31.6 61.5-19.1-26.2-39-38.2-50.5-27.4-15.8 14.8-9.8 67.3 13.7 117.1 5.4 11.4 11.2 21.6 17.2 30.5 3.3 144.6 98.5 260.7 215.4 260.7h0.4c116.9 0 212.1-115.9 215.4-260.7 6-8.9 11.8-19.1 17.2-30.5 23.2-49.8 29.4-102.3 13.5-117.1v0zM758.1 245z"  horiz-adv-x="1024" />

    
    <glyph glyph-name="02" unicode="&#59067;" d="M904.429343 630.243475 704.799211 630.243475 931.75916 853.445497c9.773062 9.603363 9.90596 25.341469 0.291352 35.114531-9.627898 9.797597-25.341469 9.942762-35.114531 0.291352l-262.962847-258.607905L400.285515 630.243475 137.322668 888.85138c-9.760795 9.603363-25.475388 9.481711-35.114531-0.291352-9.61563-9.773062-9.481711-25.511168 0.291352-35.114531l226.959949-223.202022-209.548359 0c-55.558224 0-100.761704-45.178945-100.761704-100.737169l0-556.76911c0-55.558224 45.20348-100.737169 100.761704-100.737169l784.518264 0c55.558224 0 100.749436 45.178945 100.749436 100.737169L1005.178779 529.506306C1005.177757 585.06453 959.987566 630.243475 904.429343 630.243475zM955.513017-27.262804c0-28.154802-22.916604-51.071407-51.083674-51.071407L119.910056-78.334211c-28.179337 0-51.095941 22.916604-51.095941 51.071407L68.814115 529.506306c0 28.154802 22.916604 51.071407 51.095941 51.071407l784.518264 0c28.16707 0 51.083674-22.916604 51.083674-51.071407L955.511995-27.262804zM695.546493 269.709482 394.863306 443.319346c-7.687597 4.413212-17.144773 4.413212-24.83237 0-7.687597-4.437747-12.416696-12.634443-12.416696-21.509938l0-347.196217c0-8.875494 4.729099-17.07219 12.416696-21.509938 3.843799-2.207117 8.124114-3.322432 12.416696-3.322432 4.292582 0 8.572898 1.115315 12.416696 3.322432L695.546493 226.688584c7.687597 4.437747 12.416696 12.634443 12.416696 21.509938C707.963189 257.075038 703.23409 265.271734 695.546493 269.709482zM407.280002 117.63409 407.280002 378.788511l226.185055-130.588967L407.280002 117.63409z"  horiz-adv-x="1024" />

    
    <glyph glyph-name="02f" unicode="&#59085;" d="M1002.456 530.607v-555.087c0-55.393-45.069-100.462-100.462-100.462l-782.17-0c-55.393 0-100.462 45.069-100.462 100.462v555.087c0 55.393 45.069 100.462 100.462 100.462h208.921l-226.28 222.513c-9.744 9.574-9.877 25.267-0.291 35.010 9.574 9.768 25.23 9.889 35.010 0.291l262.178-257.814h232.995l262.178 257.814c9.744 9.599 25.411 9.478 35.010-0.291 9.587-9.744 9.454-25.436-0.291-35.010l-226.281-222.514h199.020c55.393 0.001 100.462-45.068 100.462-100.461zM681.363 250.156l-299.785 173.081v-346.163l299.785 173.082z"  horiz-adv-x="1024" />

    
    <glyph glyph-name="icon1" unicode="&#58952;" d="M844.030627 500.697839 648.797108 500.697839l0-57.599859 137.370671 0c7.642051 0 13.867846-6.199189 13.867846-13.803377l0-269.774213c0-7.604188-6.225795-13.82896-13.867846-13.82896L236.001527 145.691429c-7.642051 0-13.879102 6.224772-13.879102 13.82896l0 269.774213c0 7.604188 6.237051 13.803377 13.879102 13.803377l137.348158 0 0 57.599859L178.139701 500.697839c-7.65433 0-13.902638-6.198166-13.902638-13.827937l0-452.109981c0-7.605212 6.248308-13.802354 13.902638-13.802354l271.883247 0 0-39.906895-60.82532-38.372959c-6.461155-4.090155-5.493108-7.40362 2.121314-7.40362L633.071961-64.725908c7.653307 0 8.608052 3.288906 2.134617 7.30436l-62.658062 38.97671L572.548516 20.957567l271.482111 0c7.644097 0 13.903661 6.198166 13.903661 13.802354L857.934289 486.869902C857.934289 494.499673 851.673701 500.697839 844.030627 500.697839zM314.207703 572.201359 450.411805 572.201359l0-232.855372c0-21.032012 17.279548-38.273698 38.423101-38.273698l44.49847 0c21.120017 0 38.411845 17.242709 38.411845 38.273698L571.745221 572.201359l136.204102 0c21.145599 0 27.319206 13.20065 13.768585 29.338189L535.755542 822.549128c-6.776334 8.03193-15.735379 12.071943-24.668843 12.071943-8.936533 0-17.895579-4.041036-24.671912-12.071943L300.453445 601.540571C286.900777 585.402009 293.074384 572.201359 314.207703 572.201359z"  horiz-adv-x="1024" />

    
    <glyph glyph-name="dianhua" unicode="&#59013;" d="M507.918859 245.472488c-49.503789 40.346806-106.623387 94.611243-156.090335 155.822216-34.713235 42.89496-65.404683 87.94306-33.707276 119.633303L95.656089 742.757663C63.221866 702.344339-8.620745 509.896237 299.338585 194.825612c324.458887-332.036833 533.74323-261.005742 569.766359-223.573453L652.205814 187.850422C621.886867 157.599017 582.842793 184.496887 507.918859 245.472488zM947.385483 97.093135l0 0.201601c0 0-169.23738 168.702166-169.343809 168.769707-13.381394 13.347623-34.814547 13.078481-48.127376-0.067541l-61.340939-61.375733 217.469138-217.203066c0 0 61.409504 61.176179 61.342986 61.245767l0.165784 0.132013C961.605005 62.851667 960.162074 84.24798 947.385483 97.093135zM396.298428 598.873909l0 0.168854c14.051691 14.083415 12.74589 35.45005 0 48.196964l0 0.234348c0 0-174.132089 173.597897-174.200654 173.597897-13.452005 13.484753-34.884135 13.148069-48.163193 0l-61.342986-61.441228 222.299375-221.961668C334.888924 537.664983 396.298428 598.774644 396.298428 598.873909z"  horiz-adv-x="1025" />

    
    <glyph glyph-name="dianhua1" unicode="&#59014;" d="M507.918859 245.472488c-49.503789 40.346806-106.623387 94.611243-156.090335 155.822216-34.713235 42.89496-65.404683 87.94306-33.707276 119.633303L95.656089 742.757663C63.221866 702.344339-8.620745 509.896237 299.338585 194.825612c324.458887-332.036833 533.74323-261.005742 569.766359-223.573453L652.205814 187.850422C621.886867 157.599017 582.842793 184.496887 507.918859 245.472488zM947.385483 97.093135l0 0.201601c0 0-169.23738 168.702166-169.343809 168.769707-13.381394 13.347623-34.814547 13.078481-48.127376-0.067541l-61.340939-61.375733 217.469138-217.203066c0 0 61.409504 61.176179 61.342986 61.245767l0.165784 0.132013C961.605005 62.851667 960.162074 84.24798 947.385483 97.093135zM396.298428 598.873909l0 0.168854c14.051691 14.083415 12.74589 35.45005 0 48.196964l0 0.234348c0 0-174.132089 173.597897-174.200654 173.597897-13.452005 13.484753-34.884135 13.148069-48.163193 0l-61.342986-61.441228 222.299375-221.961668C334.888924 537.664983 396.298428 598.774644 396.298428 598.873909z"  horiz-adv-x="1025" />

    
    <glyph glyph-name="editor" unicode="&#58928;" d="M802.816 29.696h-571.392c-35.021 0-63.488 28.467-63.488 63.488v570.982c0 35.021 28.467 63.488 63.488 63.488h380.928c11.674 0 21.197-9.421 21.197-21.197s-9.421-21.197-21.197-21.197h-359.731c-23.347 0-42.291-18.944-42.291-42.291v-528.691c0-23.347 18.944-42.291 42.291-42.291h529.101c23.347 0 42.291 18.944 42.291 42.291l-0 338.33v42.291c0 11.674 9.421 21.197 21.197 21.197s21.197-9.421 21.197-21.197l-0-42.291v-359.424c-0.102-35.021-28.57-63.488-63.59-63.488zM457.318 309.862c-8.294-8.294-21.606-8.294-29.901 0s-8.294 21.606 0 29.901l380.314 382.157c8.294 8.294 21.606 8.294 29.901 0s8.294-21.606 0-29.901l-380.314-382.157z"  horiz-adv-x="1024" />

    
    <glyph glyph-name="iconfontduigou" unicode="&#58953;" d="M60.217477 262.089439c0 0 250.197342-104.557334 374.563838-330.628186 149.378146 279.762705 436.109566 540.713972 521.05012 560.013527 0 115.776863 0 163.394371 0 341.442486-342.237595-226.070852-506.576477-642.342604-506.576477-642.342604l-180.049702 191.614086L60.217477 262.089439z"  horiz-adv-x="1024" />

    
    <glyph glyph-name="xingming" unicode="&#59015;" d="M512.007163 830.709995c112.829741 0 204.291826-91.466178 204.291826-204.290803 0-112.819508-91.462085-204.28671-204.291826-204.28671-112.834858 0-204.306152 91.462085-204.306152 204.28671S399.172305 830.709995 512.007163 830.709995L512.007163 830.709995 512.007163 830.709995zM512.007163 830.709995M899.442146-0.000767l0-62.709227L124.557854-62.709995l0 62.709227 0 0.010233c0 213.963093 173.46882 387.420657 387.444193 387.420657C725.975373 387.430122 899.442146 213.972559 899.442146-0.000767L899.442146-0.000767 899.442146-0.000767 899.442146-0.000767zM899.442146-0.000767"  horiz-adv-x="1024" />

    
    <glyph glyph-name="yangshengqispeaker82" unicode="&#59147;" d="M800 135.104 800 64c0 0 192 79.552 192 320s-192 320-192 320l0-71.104c0 0 128-54.272 128-248.896S800 135.104 800 135.104zM232 179.2 736-128 736 896 232 588.8 98.688 588.8C32 588.8 32 520.512 32 520.512l0-273.088c0 0 0-68.288 66.688-68.288L232 179.136zM96 524.672l135.808 0L672 768l0-768-440.192 248.512L96 248.512 96 524.672z"  horiz-adv-x="1024" />

    
    <glyph glyph-name="1zhenshixingming" unicode="&#59525;" d="M924.444444 68.266667c-14.222222 22.755556-36.977778 45.511111-59.733333 62.577778-31.288889 19.911111-68.266667 36.977778-113.777778 45.511111 0 0-39.822222 5.688889-73.955556 17.066667-59.733333 17.066667-62.577778 25.6-62.577778 25.6 0 0 0 2.844444-2.844444 2.844444 0 2.844444 0 14.222222 2.844444 39.822222 5.688889 68.266667 34.133333 102.4 62.577778 133.688889 8.533333 11.377778 14.222222 19.911111 19.911111 28.444444 11.377778 17.066667 22.755556 42.666667 25.6 56.888889 5.688889 19.911111 8.533333 34.133333 2.844444 48.355556-2.844444 8.533333-5.688889 14.222222-8.533333 17.066667 0 0 0 2.844444-2.844444 2.844444 0 0 0 0 0 5.688889 2.844444 17.066667 2.844444 31.288889 5.688889 45.511111 0 22.755556 2.844444 59.733333-2.844444 93.866667 0 5.688889-2.844444 11.377778-2.844444 19.911111-5.688889 22.755556-17.066667 45.511111-31.288889 59.733333 0 0 0 0 0 0-2.844444 2.844444-62.577778 65.422222-233.244444 79.644444-22.755556 2.844444-48.355556 0-68.266667 0l0 0c-5.688889 0-14.222222 0-19.911111-2.844444-17.066667-5.688889-22.755556-17.066667-22.755556-22.755556C335.644444 819.2 338.488889 810.666667 341.333333 804.977778c0 0 0-2.844444 0-2.844444 0 0 0 0 0-2.844444-2.844444-5.688889-11.377778-11.377778-17.066667-17.066667 0 0 0 0 0 0-2.844444-2.844444-45.511111-39.822222-48.355556-88.177778-5.688889-36.977778-5.688889-96.711111 0-133.688889 0 0 0-2.844444 0-2.844444 0-2.844444 0-5.688889 0-5.688889 0 0 0 0 0 0 0 0-2.844444-8.533333-5.688889-11.377778-2.844444-5.688889-5.688889-11.377778-5.688889-22.755556 0 0 0 0 0 0 0-2.844444 0-48.355556 28.444444-88.177778 5.688889-8.533333 14.222222-19.911111 22.755556-28.444444 28.444444-31.288889 54.044444-71.111111 59.733333-139.377778 2.844444-25.6 0-36.977778 0-39.822222 0 0 0-2.844444-2.844444-2.844444-5.688889-5.688889-2.844444-8.533333-51.2-19.911111-34.133333-8.533333-105.244444-28.444444-136.533333-42.666667C147.911111 128 105.244444 93.866667 96.711111 71.111111c-19.911111-48.355556-19.911111-71.111111-17.066667-93.866667 5.688889-31.288889 31.288889-36.977778 31.288889-36.977778L512-59.733333l0 0 233.244444 0 173.511111 0c17.066667 0 25.6 17.066667 28.444444 28.444444C947.2 2.844444 938.666667 42.666667 924.444444 68.266667zM887.466667-2.844444l-190.577778 0L512-2.844444l0 0L159.288889-2.844444c-25.6 0-28.444444 25.6-8.533333 59.733333 11.377778 22.755556 31.288889 36.977778 73.955556 56.888889 28.444444 14.222222 108.088889 28.444444 136.533333 34.133333 22.755556 5.688889 36.977778 14.222222 42.666667 19.911111 19.911111 14.222222 25.6 25.6 25.6 28.444444 5.688889 19.911111 5.688889 34.133333 2.844444 76.8-5.688889 59.733333-36.977778 110.933333-59.733333 139.377778-8.533333 8.533333-11.377778 19.911111-19.911111 25.6-31.288889 25.6-36.977778 51.2-39.822222 62.577778 0 0 0 0 0 0 0 17.066667 11.377778 22.755556 17.066667 28.444444l0 0c0 0 0 0 0 0 0 0 0 2.844444 0 5.688889 0 0 0 2.844444 0 2.844444-5.688889 34.133333-8.533333 93.866667-2.844444 128 2.844444 45.511111 34.133333 71.111111 34.133333 71.111111 0 0 0 0 0 0 5.688889 5.688889 8.533333 8.533333 14.222222 14.222222 0 0 0 0 0 2.844444 0 0 0 2.844444 0 2.844444C369.777778 765.155556 366.933333 770.844444 369.777778 782.222222c0 5.688889 5.688889 17.066667 19.911111 19.911111 5.688889 2.844444 11.377778 2.844444 17.066667 2.844444l0 0c17.066667 0 36.977778 2.844444 54.044444 0 142.222222-17.066667 184.888889-68.266667 187.733333-71.111111 0 0 0 0 0 0 11.377778-14.222222 14.222222-34.133333 19.911111-54.044444 2.844444-5.688889 2.844444-11.377778 2.844444-17.066667 5.688889-31.288889 5.688889-39.822222 2.844444-62.577778 0-11.377778-5.688889-45.511111-8.533333-59.733333 0-2.844444 0-5.688889 0-5.688889 0 0 0-2.844444 2.844444-2.844444 2.844444-2.844444 17.066667-5.688889 19.911111-17.066667 5.688889-17.066667-11.377778-51.2-31.288889-71.111111-5.688889-8.533333-22.755556-25.6-31.288889-34.133333-22.755556-28.444444-51.2-71.111111-56.888889-130.844444 0-8.533333-5.688889-45.511111-2.844444-65.422222 2.844444-17.066667 8.533333-25.6 19.911111-36.977778 0 0 25.6-19.911111 51.2-25.6 28.444444-8.533333 91.022222-19.911111 91.022222-19.911111 17.066667-2.844444 48.355556-8.533333 68.266667-17.066667 14.222222-5.688889 39.822222-22.755556 45.511111-28.444444 22.755556-14.222222 36.977778-34.133333 36.977778-34.133333C890.311111 34.133333 901.688889-2.844444 887.466667-2.844444zM389.688889 221.866667C389.688889 221.866667 389.688889 221.866667 389.688889 221.866667 389.688889 221.866667 389.688889 221.866667 389.688889 221.866667zM412.444444 184.888889C412.444444 184.888889 412.444444 184.888889 412.444444 184.888889 412.444444 184.888889 412.444444 184.888889 412.444444 184.888889zM603.022222 221.866667C603.022222 221.866667 603.022222 221.866667 603.022222 221.866667 603.022222 221.866667 603.022222 221.866667 603.022222 221.866667z"  horiz-adv-x="1024" />

    
    <glyph glyph-name="saoyisao1" unicode="&#59063;" d="M864.444563 216.958566c-12.762675 0-23.205515-10.44284-23.205515-23.205515l0-112.095008c0-12.762675-10.44284-23.205515-23.205515-23.205515L706.929086 58.452529c-12.762675 0-23.205515-10.44284-23.205515-23.205515l0-10.382465c0-12.762675 10.44284-23.205515 23.205515-23.205515L874.776885 1.659035c12.762675 0 23.205515 10.44284 23.205515 23.205515L897.9824 193.753051c0 12.762675-10.44284 23.205515-23.205515 23.205515L864.444563 216.958566zM162.146449 542.180626c12.763698 0 23.205515 10.44284 23.205515 23.205515L185.351963 691.133076c0 12.763698 10.44284 23.205515 23.205515 23.205515l126.736473 0c12.763698 0 23.205515 10.44284 23.205515 23.205515l0 10.381441c0 12.763698-10.44284 23.205515-23.205515 23.205515L151.766031 771.131061c-12.763698 0-23.205515-10.44284-23.205515-23.205515l0-182.538383c0-12.763698 10.44284-23.205515 23.205515-23.205515L162.146449 542.181649zM683.723571 737.544105c0-12.763698 10.44284-23.205515 23.205515-23.205515l111.104447 0c12.762675 0 23.205515-10.44284 23.205515-23.205515l0-125.745912c0-12.763698 10.44284-23.205515 23.205515-23.205515L874.776885 542.181649c12.762675 0 23.205515 10.44284 23.205515 23.205515L897.9824 747.925546c0 12.763698-10.44284 23.205515-23.205515 23.205515L706.929086 771.131061c-12.762675 0-23.205515-10.44284-23.205515-23.205515L683.723571 737.544105zM358.500489 35.247015c0 12.762675-10.44284 23.205515-23.205515 23.205515l-126.736473 0c-12.763698 0-23.205515 10.44284-23.205515 23.205515L185.352987 193.753051c0 12.762675-10.44284 23.205515-23.205515 23.205515l-10.381441 0c-12.763698 0-23.205515-10.44284-23.205515-23.205515l0-168.887478c0-12.762675 10.44284-23.205515 23.205515-23.205515l183.528943 0c12.763698 0 23.205515 10.44284 23.205515 23.205515L358.500489 35.247015zM853.209684 375.81355c0-12.762675-10.44284-23.205515-23.205515-23.205515L219.095485 352.608036c-12.763698 0-23.205515 10.44284-23.205515 23.205515l0 21.165042c0 12.763698 10.44284 23.205515 23.205515 23.205515l610.908684 0c12.762675 0 23.205515-10.44284 23.205515-23.205515L853.209684 375.81355z"  horiz-adv-x="1024" />

    
    <glyph glyph-name="nv" unicode="&#59223;" d="M572.5 606.6c-95.9 0-174-78-174-174 0-95.9 78-174 174-174 96 0 174 78.1 174 174C746.6 528.5 668.4 606.6 572.5 606.6zM852 894 172 894C78.1 894 2 817.9 2 724l0-680c0-93.9 76.1-170 170-170l680 0c93.9 0 170 76.1 170 170L1022 724C1022 817.9 945.9 894 852 894zM572.5 184.3c-61.2 0-117.1 22.3-160.4 59.2l-35.8-35.8 58.6-58.7-52.5-52.4-58.6 58.7-68-68-52.5 52.5 68 68-62.1 62.1 52.5 52.5 62.1-62.1 39.4 39.4c-24.5 38.5-39 84.1-39 132.9 0 136.9 111.4 248.2 248.2 248.2s248.3-111.3 248.3-248.2C820.8 295.7 709.4 184.3 572.5 184.3z"  horiz-adv-x="1024" />

    
    <glyph glyph-name="dingdanguanli" unicode="&#58963;" d="M857.26914 588.631564l0 3.678786L556.534797 830.140013l-31.914874 0 0-0.154519L216.060359 829.985494c-27.244504 0-49.409316-22.164812-49.409316-49.409316L166.651043-12.729673c0-27.244504 22.164812-49.409316 49.409316-49.409316l591.879282 0c27.243481 0 49.408293 22.164812 49.408293 49.409316L857.347934 588.570165 857.26914 588.631564zM560.982086 599.291344l0.476861 2.055822L561.458947 772.859425l234.256278-182.90575L570.668703 589.953675c-3.496637 0-6.782473 1.401929-8.575306 3.65832C560.810171 595.227796 560.45713 597.031884 560.982086 599.291344zM807.939641-25.30099 216.060359-25.30099c-6.930853 0-12.570293 5.63944-12.570293 12.570293L203.490066 780.576177c0 6.930853 5.63944 12.570293 12.570293 12.570293l308.559565 0 0-187.853435c-2.197038-12.364609 0.890276-24.855084 8.629541-34.595936 8.746198-11.009751 22.734794-17.582447 37.419238-17.582447l249.840208 0L820.508911-12.729673C820.508911-19.661549 814.870494-25.30099 807.939641-25.30099zM268.386098 613.210355l219.998553 0 0-36.839023-219.998553 0 0 36.839023ZM268.386098 450.609047l488.103754 0 0-36.839023-488.103754 0 0 36.839023ZM268.386098 281.763524l488.103754 0 0-36.839023-488.103754 0 0 36.839023ZM268.386098 114.964614l488.103754 0 0-36.839023-488.103754 0 0 36.839023Z"  horiz-adv-x="1024" />

    
    <glyph glyph-name="yijianfankui1" unicode="&#58964;" d="M936.658824 504.470588 936.658824 504.470588c-18.070588 0-33.129412-3.011765-33.129412-18.070588l0-487.905882c0-18.070588-6.023529-36.141176-24.094118-36.141176l-722.823529 0C141.552941-37.647059 120.470588-19.576471 120.470588-1.505882l0 722.823529C120.470588 736.376471 141.552941 745.411765 156.611765 745.411765l490.917647 0C665.6 745.411765 692.705882 760.470588 692.705882 778.541176l0 0c0 18.070588-27.105882 30.117647-45.176471 30.117647L96.376471 808.658824C81.317647 805.647059 60.235294 796.611765 60.235294 781.552941l0-843.294118C60.235294-79.811765 81.317647-97.882353 96.376471-97.882353l843.294118 0c18.070588 0 24.094118 18.070588 24.094118 36.141176L963.764706 486.4C963.764706 501.458824 954.729412 504.470588 936.658824 504.470588zM981.835294 814.682353c-12.047059 12.047059-30.117647 12.047059-42.164706 0L614.4 489.411765c-12.047059-12.047059-12.047059-30.117647 0-42.164706 12.047059-12.047059 30.117647-12.047059 42.164706 0L981.835294 772.517647C993.882353 784.564706 993.882353 802.635294 981.835294 814.682353zM481.882353 474.352941l-180.705882 0c-18.070588 0-30.117647-12.047059-30.117647-30.117647l0 0c0-18.070588 12.047059-30.117647 30.117647-30.117647l180.705882 0c18.070588 0 30.117647 12.047059 30.117647 30.117647l0 0C512 462.305882 499.952941 474.352941 481.882353 474.352941zM271.058824 203.294118 271.058824 203.294118c0-18.070588 12.047059-30.117647 30.117647-30.117647l421.647059 0c18.070588 0 30.117647 12.047059 30.117647 30.117647l0 0c0 18.070588-12.047059 30.117647-30.117647 30.117647L301.176471 233.411765C283.105882 233.411765 271.058824 221.364706 271.058824 203.294118z"  horiz-adv-x="1024" />

    
    <glyph glyph-name="guanyuwomen" unicode="&#58965;" d="M595.172281 385.846044c65.850777 31.136138 111.601774 97.993848 111.601774 175.521572 0 107.119693-87.161129 194.276728-194.280822 194.276728s-194.276728-87.157036-194.276728-194.276728c0-77.526701 45.776579-144.385435 111.597681-175.521572-163.896814-40.457434-239.689011-200.774723-239.689011-351.376743 0-10.779507 8.736988-19.456121 19.460214-19.456121 10.779507 0 19.485797 8.706289 19.485797 19.456121 0 155.249877 88.668459 322.372152 283.397489 322.372152 194.724936 0 283.393395-167.122275 283.393395-322.372152 0-10.779507 8.735965-19.456121 19.484773-19.456121 10.752902 0 19.460214 8.706289 19.460214 19.456121C834.861292 185.072345 759.098771 345.389634 595.172281 385.846044L595.172281 385.846044zM357.161493 561.367617c0 85.644589 69.657476 155.330718 155.330718 155.330718s155.335834-69.686129 155.335834-155.330718c0-85.617983-69.661569-155.279552-155.335834-155.279552S357.161493 475.749634 357.161493 561.367617L357.161493 561.367617zM357.161493 561.367617M275.264251 398.389732c8.847505 0.841158 15.990183 7.586792 17.386996 16.379039 1.37123 8.792247-3.413749 17.443277-11.589966 20.942985-3.917216 1.679245-95.529727 42.054815-88.25095 136.90916 8.344039 108.017132 125.991506 121.089869 131.087571 121.624035 10.667967 1.033539 18.507516 10.526751 17.472953 21.223371-1.007957 10.723226-10.389628 18.533099-21.223371 17.554818-53.671387-5.125741-157.488871-44.600801-166.19516-157.408029-5.348821-70.160943 32.366152-120.585379 69.688175-150.153812-64.87352-22.590508-171.181731-86.792739-158.023036-263.544325 0.7552-10.219759 9.295714-18.058284 19.373233-18.058284 0.50449 0 0.983397 0 1.487887 0.056282 10.722202 0.811482 18.784832 10.163477 17.972327 20.88568C88.660272 377.305531 267.707135 397.662161 275.264251 398.389732L275.264251 398.389732zM275.264251 398.389732M801.320385 425.461297c37.322024 29.623691 75.061556 79.991846 69.631894 150.153812-8.68173 112.777553-112.468514 152.255683-166.139901 157.408029-10.779507 0.952698-20.216437-6.860245-21.225417-17.528212-1.033539-10.69355 6.832615-20.216437 17.529235-21.249977 5.01113-0.473791 122.631992-12.935614 131.001613-121.594359 7.310499-94.858438-84.327594-135.25959-88.163969-136.8846-8.202822-3.472078-12.991895-12.06478-11.651364-20.856004 1.316995-8.792247 8.484232-15.622816 17.33276-16.490579 7.617491-0.730641 186.66333-21.083178 170.873716-233.5635-0.811482-10.722202 7.250124-20.070104 17.97335-20.881586 0.50449-0.060375 0.982374-0.060375 1.485841-0.060375 10.078543 0 18.619056 7.812943 19.374256 18.058284C972.527698 338.668559 866.219487 402.87079 801.320385 425.461297L801.320385 425.461297zM801.320385 425.461297"  horiz-adv-x="1024" />

    
    <glyph glyph-name="dianhua2" unicode="&#59016;" d="M809.370223 486.120842c-93.231381 30.68179-55.840796 89.130993-111.830995 111.832018-95.059006 38.546921-186.391131 37.281091-186.391131 37.281091s-91.031273 0.968048-186.387038-37.281091c-56.103786-22.512736-18.60473-81.149205-111.836111-111.832018-98.559736-32.432667-150.004409 15.096836-148.959613 73.812099 0.740874 39.36352 24.972764 83.760682 74.405617 112.578008 126.557394 73.808006 372.776122 74.55502 372.776122 74.55502s246.223844-0.748037 372.780215-74.55502c49.055253-28.630061 73.325006-72.579015 74.365708-111.721501C959.860702 501.665887 908.4191 453.540819 809.370223 486.120842L809.370223 486.120842zM383.915321 512.59582l63.444984 0 0-63.956637 127.913275 0 0 63.956637 63.956637 0 0-63.956637 256.167311-223.464491 0-149.109016c0-41.154305-44.871977-74.557066-86.027305-74.557066L212.923926 1.508609c-41.153282 0-85.005023 33.403784-85.005023 74.557066L127.918903 225.174692l255.997442 223.464491L383.916345 512.59582 383.915321 512.59582zM511.898181 96.14192c70.621431 0.001023 127.877459 57.256028 127.877459 127.872343 0 70.623477-57.256028 127.878482-127.877459 127.878482-70.616314 0-127.873366-57.255005-127.873366-127.878482C384.024815 153.397948 441.281867 96.14192 511.898181 96.14192L511.898181 96.14192z"  horiz-adv-x="1024" />

    
    <glyph glyph-name="zhengque1" unicode="&#58940;" d="M127.296 497.152l316.8-316.736-90.496-90.56-316.8 316.8L127.296 497.152zM896.64 723.456l90.56-90.56-588.288-588.288-90.496 90.56L896.64 723.456z"  horiz-adv-x="1024" />

    
    <glyph glyph-name="shangchuan" unicode="&#59503;" d="M512.546957 395.968589c-0.095167 0.091074-0.221034 0.147356-0.361227 0.147356-0.141216 0-0.268106-0.056282-0.36225-0.147356l-7.549953-7.28287c-0.051165-0.049119-0.070608-0.12689-0.042979-0.197498s0.094144-0.113587 0.162706-0.113587l4.88424 0 0-7.402597c0-0.138146 0.052189-0.276293 0.154519-0.38067 0.103354-0.106424 0.237407-0.158612 0.372483-0.158612l4.756327 0c0.135076 0 0.270153 0.053212 0.372483 0.158612 0.103354 0.105401 0.154519 0.242524 0.154519 0.38067l0 7.402597 4.88424 0c0.068562 0 0.135076 0.042979 0.162706 0.113587s0.008186 0.149403-0.044002 0.197498L512.546957 395.968589 512.546957 395.968589 512.546957 395.968589zM526.520203 378.115989l-4.64888 3.307326-2.90619 0 4.875031-4.044106-5.358031 0.071631c-0.155543 0-0.379647-0.152473-0.449231-0.280386l-1.488911-3.690042-8.716522 0-1.488911 3.690042c-0.069585 0.127913-0.293689 0.280386-0.449231 0.280386l-5.326309 0 4.842285 3.972475-2.90619 0-4.649903-3.308349c-0.726547-0.446162-1.162476-1.473561-0.967024-2.285043l0.862647-4.846378c0.195451-0.810459 1.059122-1.473561 1.920746-1.473561l25.041326 0c0.860601 0 1.725294 0.663102 1.920746 1.473561l0.861624 4.846378C527.683702 376.641405 527.247774 377.669828 526.520203 378.115989L526.520203 378.115989 526.520203 378.115989zM526.520203 378.115989M522.729877 765.973598c-2.764973 2.648316-6.432503 4.278443-10.507308 4.278443-4.104481 0-7.800663-1.630127-10.535961-4.278443L281.802666 553.860642c-1.484817-1.426489-2.067079-3.696182-1.251503-5.762237 0.814552-2.067079 2.735297-3.318582 4.744048-3.318582l142.262074 0 0-215.606523c0-4.016477 1.51347-8.032954 4.511757-11.088546 2.998287-3.086291 6.92676-4.627391 10.856255-4.627391l138.53724 0c3.929496 0 7.858992 1.542122 10.856255 4.627391 2.998287 3.055592 4.510734 7.072069 4.510734 11.088546L596.829526 544.779823l142.262074 0c2.00875 0 3.929496 1.251503 4.745071 3.318582 0.814552 2.066055 0.233314 4.336772-1.281179 5.762237L522.729877 765.973598 522.729877 765.973598 522.729877 765.973598zM929.697729 246.050138 794.304086 342.38623l-84.635609 0L851.639932 224.599593l-156.058288 2.095731c-4.541433 0-11.060917-4.453429-13.097296-8.178263l-43.36567-107.481943L385.269156 111.035118 341.903485 218.517061c-2.037403 3.725858-8.556886 8.178263-13.097296 8.178263L173.67911 226.695325l141.04127 115.690906L230.083747 342.38623l-135.423319-96.364745c-21.158902-12.980639-33.848922-42.928718-28.173666-66.561975l25.117051-141.156904c5.704932-23.603581 30.850635-42.928718 55.939033-42.928718l729.302141 0c25.058722 0 50.234101 19.325138 55.93801 42.928718l25.089421 141.156904C963.576327 203.092767 950.886307 233.040846 929.697729 246.050138L929.697729 246.050138 929.697729 246.050138zM929.697729 246.050138"  horiz-adv-x="1024" />

    
    <glyph glyph-name="wxbzhuye" unicode="&#59068;" d="M965.963701 409.25315 526.971481 848.160435 89.258395 410.467815c-8.363482-8.383948-8.363482-21.966291 0-30.349215 8.42488-8.385994 21.98778-8.385994 30.349215 0l76.296687 76.252685L195.904297 18.678664c0-30.099529 24.460088-54.580083 54.559617-54.580083l559.219441 0c30.099529 0 54.580083 24.480554 54.580083 54.580083L864.263437 450.208934l71.351048-71.307046c4.15053-4.234441 9.641591-6.246261 15.174608-6.246261 5.449106 0 10.982122 2.012843 15.175631 6.246261C974.347648 387.243881 974.347648 400.868179 965.963701 409.25315M821.337789 18.678664c0-6.415107-5.240351-11.654434-11.655458-11.654434L250.463913 7.02423c-6.415107 0-11.632945 5.239328-11.632945 11.654434L238.830969 499.296933l288.140513 288.204981L821.337789 493.134583 821.337789 18.678664 821.337789 18.678664zM406.408615 440.166207c0-66.821895 54.328349-121.193223 121.193223-121.193223 66.862827 0 121.1922 54.371328 121.1922 121.193223 0 66.819848-54.329373 121.149221-121.1922 121.149221C460.736964 561.314405 406.408615 506.986055 406.408615 440.166207M527.600815 518.38978c43.134403 0 78.263481-35.130102 78.263481-78.223572 0-43.179428-35.129078-78.265528-78.263481-78.265528-43.136449 0-78.266551 35.087123-78.266551 78.265528C449.334263 483.259678 484.464365 518.38978 527.600815 518.38978"  horiz-adv-x="1024" />

    
    <glyph glyph-name="hot2" unicode="&#59252;" d="M123.841539 636.080226 123.841539 286.226163 123.841539 196.606029 211.415061 286.226163 892.052852 286.226163 892.052852 636.080226 123.841539 636.080226ZM395.895679 348.358245l-28.694529 0 0 100.143814L254.718309 448.50206l0-100.143814-28.694529 0L226.02378 570.597839l28.694529 0 0-96.557126 112.482841 0 0 96.557126 28.694529 0L395.895679 348.358245zM438.937984 456.823586c0 35.867906 9.707083 64.419172 29.125341 85.653799 19.416212 21.233604 45.717228 31.850405 78.909188 31.850405 30.894637 0 55.762001-10.379395 74.607208-31.133068 18.841114-20.756743 28.262694-47.77612 28.262694-81.062224 0-36.06131-9.661034-64.659649-28.980032-85.797062-19.323091-21.139459-45.147246-31.707143-77.475536-31.707143-31.564903 0-56.865125 10.377348-75.897597 31.134091C448.454732 396.515035 438.937984 423.538505 438.937984 456.823586zM469.067188 459.118861c0-26.879184 6.862291-48.421826 20.587897-64.634066 13.724583-16.213263 31.636534-24.318872 53.730739-24.318872 23.720238 0 42.34748 7.769964 55.881728 23.313985 13.535271 15.541975 20.302395 37.278022 20.302395 65.208141 0 28.694529-6.625908 50.836829-19.87056 66.427922-13.248745 15.589047-31.399127 23.38664-54.4491 23.38664-22.668279 0-41.032532-8.227382-55.093782-24.677029C476.097302 507.372865 469.067188 485.805664 469.067188 459.118861zM812.82951 545.060209l-64.132646 0 0-196.701964-28.838815 0L719.858048 545.060209l-63.845097 0 0 25.538653 156.815535 0L812.828486 545.060209z"  horiz-adv-x="1024" />

    
    <glyph glyph-name="shichang" unicode="&#58986;" d="M512-107.52C240.539648-107.52 20.48 112.539648 20.48 384S240.539648 875.52 512 875.52s491.52-220.059648 491.52-491.52S783.460352-107.52 512-107.52zM512 834.56C263.159808 834.56 61.44 632.840192 61.44 384s201.719808-450.56 450.56-450.56 450.56 201.719808 450.56 450.56S760.840192 834.56 512 834.56zM491.52 363.52l0 40.96L491.52 711.68l40.96 0 0-307.2 225.28 0 0-40.96L532.48 363.52 491.52 363.52z"  horiz-adv-x="1024" />

    
    <glyph glyph-name="shangchuan1" unicode="&#58941;" d="M832.080175 85.333333C938.127795 85.333333 1024 171.27904 1024 277.333333 1024 383.249613 938.666667 469.333333 850.805973 468.41347 830.219157 637.234525 686.380535 768 512 768 323.486805 768 170.666667 597.333333 174.510252 468.554859 76.630831 459.759253 0 377.518566 0 277.333333 0 171.417054 85.970766 85.333333 191.919823 85.333333L298.666667 85.333333C322.230816 85.333333 341.333333 104.435853 341.333333 128 341.333333 151.564147 322.230816 170.666667 298.666667 170.666667L191.919823 170.666667C133.124164 170.666667 85.333333 218.520286 85.333333 277.333333 85.333333 336.275665 133.016855 384 191.919823 384L213.333333 384 256 384 256 426.666667C256 568.051563 370.615104 682.666667 512 682.666667 653.384896 682.666667 768 568.051563 768 426.666667L768 384 810.666667 384 832.080175 384C890.875836 384 938.666667 336.146381 938.666667 277.333333 938.666667 218.391002 890.983147 170.666667 832.080175 170.666667L725.333333 170.666667C701.769186 170.666667 682.666667 151.564147 682.666667 128 682.666667 104.435853 701.769186 85.333333 725.333333 85.333333L832.080175 85.333333ZM479.905958 412.245739C487.687654 421.074249 499.112341 426.649771 511.941649 426.666628 522.880452 426.681489 533.823868 422.515913 542.16989 414.16989L670.16989 286.16989C686.83226 269.50752 686.83226 242.49248 670.16989 225.83011 653.50752 209.16774 626.49248 209.16774 609.83011 225.83011L554.666667 281.335475 554.666667 42.470298C554.666667 19.014601 535.728435 0 512 0 488.435853 0 469.333333 19.441681 469.333333 42.470298L469.333333 281.335475 414.169889 225.83011C397.50752 209.16774 370.49248 209.16774 353.830111 225.83011 337.167741 242.49248 337.167741 269.50752 353.830111 286.16989L479.905958 412.245739Z"  horiz-adv-x="1024" />

    
    <glyph glyph-name="qian2" unicode="&#58992;" d="M694.26516 609.01173 512 426.745547 329.732793 609.01173c-8.287757 8.287757-21.724791 8.286734-30.012547-0.001023-8.286734-8.286734-8.286734-21.723767 0-30.011524l161.04486-161.043836-108.634186 0c-11.720949 0-21.221324-9.502421-21.221324-21.221324s9.501398-21.221324 21.221324-21.221324l139.000797 0 0-89.12997L363.803773 286.382729c-11.720949 0-21.221324-9.502421-21.221324-21.221324s9.501398-21.221324 21.221324-21.221324l127.328967 0 0-131.572618c0-11.718903 9.502421-21.221324 21.221324-21.221324s21.221324 9.502421 21.221324 21.221324L533.575388 243.940081l127.327944 0c11.719926 0 21.221324 9.502421 21.221324 21.221324S672.623257 286.382729 660.903332 286.382729L533.575388 286.382729l0 89.12997 138.999774 0c11.719926 0 21.221324 9.502421 21.221324 21.221324s-9.502421 21.221324-21.221324 21.221324L563.233871 417.955346l161.043836 161.043836c8.287757 8.287757 8.287757 21.724791 0 30.012547C715.987904 617.299487 702.554964 617.299487 694.26516 609.01173zM512 830.709995c-246.316965 0-446.709995-200.39303-446.709995-446.708971 0-246.316965 200.39303-446.709995 446.709995-446.709995s446.709995 200.39303 446.709995 446.709995C958.709995 630.316965 758.316965 830.709995 512 830.709995zM512-20.266323c-222.913952 0-404.267347 181.353394-404.267347 404.267347S289.086048 788.266323 512 788.266323s404.267347-181.352371 404.267347-404.266323S734.912929-20.266323 512-20.266323z"  horiz-adv-x="1024" />

    
    <glyph glyph-name="edit" unicode="&#58929;" d="M407.833 210.471l-132.791-80.412c-12.087-5.635-22.964 6.032-17.329 17.353l80.388 132.891 69.733-69.832zM641.504 600.985l87.432-86.27-277.844-278.018c-32.53 32.58-77.593 77.668-86.814 86.888l277.226 277.4zM728.936 688.467c9.591 9.616 25.139 9.616 34.755 0l52.083-52.108c9.592-9.616 9.592-25.164 0-34.755l-52.083-52.133-85.603 88.149 50.847 50.847zM316.965 332.88l-106.293-215.181c-8.923-24.25 10.456-45.953 34.681-34.705l215.033 106.367c9.27 1.805 18.267 5.413 25.436 12.582l382.036 382.308c19.182 19.158 19.182 50.303 0 69.486l-86.814 86.887c-19.207 19.182-50.279 19.182-69.461 0l-382.036-382.282c-7.193-7.192-10.752-16.192-12.582-25.461v0zM858.070 482.877v-395.508c0-27.166-26.845-49.735-53.963-49.735h-589.38c-27.117 0-49.117 22-49.117 49.167v589.751c0 27.166 22.618 53.517 49.76 53.517h395.508v49.438h-395.508c-54.233 0-98.877-48.672-98.877-102.956v-589.751c0-54.308 43.975-98.308 98.234-98.308h589.38c54.259 0 103.401 44.594 103.401 98.877v395.508h-49.438z"  horiz-adv-x="1024" />

    
    <glyph glyph-name="yduixinlangweibo" unicode="&#59046;" d="M423.960363 300.360068c-15.693424 6.594185-35.977399-0.202615-45.674249-15.295358-9.790994-15.189957-5.195326-33.269731 10.395768-40.371476 15.788591-7.192819 36.873816-0.393973 46.666856 15.189957C444.846042 275.574568 439.849238 293.662529 423.960363 300.360068L423.960363 300.360068zM462.631104 316.348204c-5.997598 2.394537-13.589506-0.503467-17.089214-6.39771-3.397377-5.892197-1.497097-12.691043 4.499477-15.189957 6.095835-2.49789 13.989619 0.400113 17.488303 6.494924C470.927047 307.252035 468.732056 314.149119 462.631104 316.348204L462.631104 316.348204zM438.149527 421.278022c-101.435227-9.993608-178.283476-71.852468-171.687244-138.209782 6.597255-66.354244 94.137007-112.024399 195.566094-102.134145 101.437274 9.993608 178.285522 71.854515 171.688267 138.313136C627.120412 385.597381 539.58066 431.269583 438.149527 421.278022L438.149527 421.278022zM527.089162 264.780735c-20.684088-46.667879-80.248695-71.554686-130.713041-55.260581-48.76668 15.685237-69.456908 63.652715-48.069809 106.926288 20.98801 42.37204 75.55172 66.357314 123.714649 53.865815C522.093381 357.418598 547.573705 310.45089 527.089162 264.780735L527.089162 264.780735zM511.997442 831.701578c-247.234871 0-447.699532-200.465684-447.699532-447.696462 0-247.235894 200.464661-447.706695 447.699532-447.706695 247.235894 0 447.703625 200.469777 447.703625 447.706695C959.701067 631.235894 759.233336 831.701578 511.997442 831.701578L511.997442 831.701578zM462.631104 136.567631c-127.113049 0-257.025864 61.36051-257.025864 162.390507 0 52.766784 33.576723 113.824395 91.333148 171.485653 77.152171 76.847226 167.189813 111.922069 200.970174 78.145801 14.889105-14.888082 16.386202-40.572044 6.79373-71.354118-4.995781-15.485693 14.5903-6.892991 14.5903-6.892991 62.359256 25.983791 116.824729 27.584242 136.710638-0.802272 10.594289-15.087627 9.592472-36.274158-0.200568-60.754712-4.494361-11.2973 1.400906-13.09218 9.993608-15.59007 35.177174-10.896164 74.253144-37.074384 74.253144-83.446527C740.047368 232.999914 629.21819 136.567631 462.631104 136.567631L462.631104 136.567631zM692.677501 457.650417c4.098341 12.692067 1.497097 27.080775-8.095375 37.675064-9.593496 10.592242-23.680329 14.588253-36.773532 11.792581l0 0c-10.895141-2.400676-21.587668 4.597715-23.984251 15.488763-2.301416 10.895141 4.597715 21.587668 15.489786 23.886013 26.680663 5.692652 55.562457-2.596128 75.149561-24.184819 19.587104-21.684882 24.88169-51.166333 16.488533-77.04677-3.396353-10.594289-14.789844-16.388249-25.384134-12.994965C695.077154 435.66673 689.280124 447.056128 692.677501 457.650417L692.677501 457.650417 692.677501 457.650417 692.677501 457.650417 692.677501 457.650417zM810.400692 419.774785C810.400692 419.676547 810.400692 419.676547 810.400692 419.774785c-4.000104-12.389168-17.288758-19.084661-29.579689-15.08865-12.393261 3.997034-19.089777 17.090237-15.09172 29.483498l0 0c12.193717 37.771255 4.498454 80.843236-24.085558 112.425535-28.579919 31.573089-70.749344 43.666522-109.727077 35.369555-12.69309-2.692319-25.183566 5.395894-27.882024 17.990746-2.693342 12.590759 5.395894 25.082258 18.088984 27.780717l0 0c54.763255 11.593036 114.128317-5.398964 154.398486-49.76645C816.696072 533.398612 827.586097 472.840374 810.400692 419.774785L810.400692 419.774785zM810.400692 419.774785"  horiz-adv-x="1024" />

    
    <glyph glyph-name="yduixinlangweibo1" unicode="&#59047;" d="M423.960363 300.360068c-15.693424 6.594185-35.977399-0.202615-45.674249-15.295358-9.790994-15.189957-5.195326-33.269731 10.395768-40.371476 15.788591-7.192819 36.873816-0.393973 46.666856 15.189957C444.846042 275.574568 439.849238 293.662529 423.960363 300.360068L423.960363 300.360068zM462.631104 316.348204c-5.997598 2.394537-13.589506-0.503467-17.089214-6.39771-3.397377-5.892197-1.497097-12.691043 4.499477-15.189957 6.095835-2.49789 13.989619 0.400113 17.488303 6.494924C470.927047 307.252035 468.732056 314.149119 462.631104 316.348204L462.631104 316.348204zM438.149527 421.278022c-101.435227-9.993608-178.283476-71.852468-171.687244-138.209782 6.597255-66.354244 94.137007-112.024399 195.566094-102.134145 101.437274 9.993608 178.285522 71.854515 171.688267 138.313136C627.120412 385.597381 539.58066 431.269583 438.149527 421.278022L438.149527 421.278022zM527.089162 264.780735c-20.684088-46.667879-80.248695-71.554686-130.713041-55.260581-48.76668 15.685237-69.456908 63.652715-48.069809 106.926288 20.98801 42.37204 75.55172 66.357314 123.714649 53.865815C522.093381 357.418598 547.573705 310.45089 527.089162 264.780735L527.089162 264.780735zM511.997442 831.701578c-247.234871 0-447.699532-200.465684-447.699532-447.696462 0-247.235894 200.464661-447.706695 447.699532-447.706695 247.235894 0 447.703625 200.469777 447.703625 447.706695C959.701067 631.235894 759.233336 831.701578 511.997442 831.701578L511.997442 831.701578zM462.631104 136.567631c-127.113049 0-257.025864 61.36051-257.025864 162.390507 0 52.766784 33.576723 113.824395 91.333148 171.485653 77.152171 76.847226 167.189813 111.922069 200.970174 78.145801 14.889105-14.888082 16.386202-40.572044 6.79373-71.354118-4.995781-15.485693 14.5903-6.892991 14.5903-6.892991 62.359256 25.983791 116.824729 27.584242 136.710638-0.802272 10.594289-15.087627 9.592472-36.274158-0.200568-60.754712-4.494361-11.2973 1.400906-13.09218 9.993608-15.59007 35.177174-10.896164 74.253144-37.074384 74.253144-83.446527C740.047368 232.999914 629.21819 136.567631 462.631104 136.567631L462.631104 136.567631zM692.677501 457.650417c4.098341 12.692067 1.497097 27.080775-8.095375 37.675064-9.593496 10.592242-23.680329 14.588253-36.773532 11.792581l0 0c-10.895141-2.400676-21.587668 4.597715-23.984251 15.488763-2.301416 10.895141 4.597715 21.587668 15.489786 23.886013 26.680663 5.692652 55.562457-2.596128 75.149561-24.184819 19.587104-21.684882 24.88169-51.166333 16.488533-77.04677-3.396353-10.594289-14.789844-16.388249-25.384134-12.994965C695.077154 435.66673 689.280124 447.056128 692.677501 457.650417L692.677501 457.650417 692.677501 457.650417 692.677501 457.650417 692.677501 457.650417zM810.400692 419.774785C810.400692 419.676547 810.400692 419.676547 810.400692 419.774785c-4.000104-12.389168-17.288758-19.084661-29.579689-15.08865-12.393261 3.997034-19.089777 17.090237-15.09172 29.483498l0 0c12.193717 37.771255 4.498454 80.843236-24.085558 112.425535-28.579919 31.573089-70.749344 43.666522-109.727077 35.369555-12.69309-2.692319-25.183566 5.395894-27.882024 17.990746-2.693342 12.590759 5.395894 25.082258 18.088984 27.780717l0 0c54.763255 11.593036 114.128317-5.398964 154.398486-49.76645C816.696072 533.398612 827.586097 472.840374 810.400692 419.774785L810.400692 419.774785zM810.400692 419.774785"  horiz-adv-x="1024" />

    
    <glyph glyph-name="saoyisao2" unicode="&#59064;" d="M878.4-75.3 751.9-75.3l0 43.6 126.5 0c33.1 0 60 26.9 60 60L938.4 154.7 982 154.7l0-126.5C982-28.9 935.5-75.3 878.4-75.3zM982 637.7l-43.6 0L938.4 764.2c0 33.1-26.9 60-60 60L751.9 824.2 751.9 867.8l126.5 0c57.1 0 103.6-46.5 103.6-103.6L982 637.7zM82.4 637.7 38.9 637.7 38.9 764.2c0 57.1 46.5 103.6 103.6 103.6l127 0 0-43.6-127 0c-33.1 0-60-26.9-60-60L82.4 637.7 82.4 637.7zM269.4-75.3l-127 0c-57.1 0-103.6 46.5-103.6 103.6L38.8 154.7l43.6 0 0-126.5c0-33.1 26.9-60 60-60l127 0L269.4-75.3zM85.7 418.1l849.4 0 0-43.6-849.4 0 0 43.6Z"  horiz-adv-x="1024" />

    
    <glyph glyph-name="bianji11" unicode="&#59028;" d="M250.487961 114.469334 451.66996 200.120063 328.172251 321.626417ZM848.057849 588.54049 720.576409 720.00566 351.07896 355.488643 483.539808 218.047364ZM953.081811 745.791953c0 0-33.744545 37.346583-72.585155 65.729004s-68.717058 0-68.717058 0l-65.729004-65.729004 133.450385-132.953058c0 0 56.268538 56.766888 73.580832 76.18617C970.394105 708.44537 953.081811 745.791953 953.081811 745.791953zM810.958906 45.629479c0-9.215896-7.471159-16.687054-16.687054-16.687054l-622.190635 0c-9.215896 0-16.687054 7.471159-16.687054 16.687054L155.394163 662.896988c0 9.215896 7.471159 16.687054 16.687054 16.687054l395.560034 0 82.390475 87.663572L87.35658 767.247614c-11.120268 0-20.134573-9.014304-20.134573-20.134573l0-785.700639c0-11.120268 9.014304-20.134573 20.134573-20.134573l791.640931 0c11.120268 0 20.134573 9.014304 20.134573 20.134573L899.132084 522.585335l-88.171132-81.838913L810.960952 45.629479z"  horiz-adv-x="1024" />

    
    <glyph glyph-name="bofang1" unicode="&#59058;" d="M512 827.808922c-245.204631 0-443.808922-198.60429-443.808922-443.808922s198.60429-443.808922 443.808922-443.808922 443.808922 198.60429 443.808922 443.808922S757.203608 827.808922 512 827.808922zM423.23842 184.286446 423.23842 583.714578l266.284739-199.713554L423.23842 184.286446z"  horiz-adv-x="1024" />

    
    <glyph glyph-name="maikefengxianxing" unicode="&#59069;" d="M495.941767-17.437905 495.941767 159.077298c0 0.203638 0 0.407276 0.01535 0.611937-134.418432 8.27957-240.878093 119.882368-240.878093 256.512165l0 6.288217 0.047072 0c-0.031722 0.548492-0.047072 1.096984-0.047072 1.653663 0 13.305027 10.772344 24.086581 24.085558 24.086581 13.314237 0 24.086581-10.781554 24.086581-24.086581 0-0.556679-0.016373-1.105171-0.047072-1.653663l0.047072 0 0-8.476045c0-115.39824 93.459578-208.78721 208.747301-208.78721 115.304096 0 208.747301 93.475951 208.747301 208.78721l0 8.476045 0.047072 0c-0.030699 0.548492-0.047072 1.096984-0.047072 1.653663 0 13.305027 10.772344 24.086581 24.086581 24.086581 13.313214 0 24.085558-10.781554 24.085558-24.086581 0-0.556679-0.01535-1.105171-0.047072-1.653663l0.047072 0 0-6.288217c0-136.552026-106.427938-248.233618-240.878093-256.512165 0.01535-0.203638 0.01535-0.407276 0.01535-0.611937l0-176.515203 88.23867 0c13.344936 0 24.164353-10.694573 24.164353-24.085558 0-13.297864-10.709923-24.085558-24.164353-24.085558l-208.590735 0c-13.344936 0-24.164353 10.69355-24.164353 24.085558 0 13.296841 10.709923 24.085558 24.164353 24.085558L495.941767-17.437905zM511.999488 833.610044c-88.708368 0-160.575162-71.92103-160.575162-160.637584l0-256.794597c0-88.590688 71.898517-160.637584 160.575162-160.637584 88.708368 0 160.575162 71.92103 160.575162 160.637584L672.57465 672.972461C672.57465 761.563148 600.676134 833.610044 511.999488 833.610044zM624.402511 416.044834c0-62.035892-50.446949-112.332415-112.403023-112.332415-62.08194 0-112.403023 50.188053-112.403023 112.332415L399.596466 673.10549c0 62.034868 50.446949 112.331391 112.403023 112.331391 62.08194 0 112.403023-50.187029 112.403023-112.331391L624.402511 416.044834z"  horiz-adv-x="1024" />

    
    <glyph glyph-name="shexiangtouxianxing" unicode="&#59070;" d="M510.976182 563.89723c-89.37761 0-161.827689-72.450079-161.827689-161.827689s72.450079-161.828712 161.827689-161.828712c89.378633 0 161.828712 72.451102 161.828712 161.828712S600.354815 563.89723 510.976182 563.89723zM510.976182 294.183392c-59.578933 0-107.885126 48.323589-107.885126 107.885126 0 59.597353 48.306192 107.885126 107.885126 107.885126 59.579957 0 107.886149-48.287773 107.886149-107.885126C618.862331 342.50698 570.556139 294.183392 510.976182 294.183392zM870.594633 402.069541c0 174.124759-123.724883 319.314513-288.051485 352.49317 0.230244 2.345418 0.358157 4.719488 0.358157 7.124258 0 39.71963-32.204469 71.923076-71.924099 71.923076-39.718607 0-71.923076-32.203446-71.923076-71.923076 0-2.40477 0.127913-4.779863 0.358157-7.124258-164.325579-33.177634-288.051485-178.36841-288.051485-352.49317 0-156.066475 99.431593-288.922319 238.405785-338.671373-25.143657-29.334095-79.69611-92.777033-94.558609-108.428501-19.437701-20.510126 63.09092-20.579711 214.366276-20.579711 151.274332 0 233.803977 0.069585 214.365252 20.579711-14.734586 15.517415-68.476581 78.003562-93.901647 107.661022C770.136663 111.773945 870.594633 245.196701 870.594633 402.069541zM492.995669 761.686968c0 9.939373 8.05956 17.980513 17.980513 17.980513s17.980513-8.04114 17.980513-17.980513c0-0.149403-0.00614-0.295735-0.00921-0.444115-5.953595 0.292666-11.945053 0.444115-17.971303 0.444115s-12.017708-0.151449-17.971303-0.444115C493.000785 761.391233 492.995669 761.537566 492.995669 761.686968zM618.1409-2.816906c0 0 1.439792-8.849552-112.713085-8.849552l0.017396 0.069585c-105.426121 0.455371-104.442724 8.779967-104.442724 8.779967l45.706995 50.535977 5.015224-0.409322c18.380626-3.048429 37.232996-4.692882 56.4425-4.840238l0-0.01842 0.200568 0.016373c0.86981-0.00614 1.737574-0.016373 2.608407-0.016373 20.961404 0 41.503253 1.801019 61.48126 5.242398L618.1409-2.816906zM510.976182 96.393653c-168.81687 0-305.674864 136.856971-305.674864 305.674864 0 168.81687 136.857994 305.674864 305.674864 305.674864s305.675888-136.857994 305.675888-305.674864C816.65207 233.250624 679.793052 96.393653 510.976182 96.393653z"  horiz-adv-x="1024" />

    
    <glyph glyph-name="shangchuan2" unicode="&#59127;" d="M374.978277 552.431084c0 0-61.903885 62.009286-145.889695 11.366885-75.143421-48.349171-61.854766-136.832412-61.854766-136.832412S0.325411 393.171893 0.325411 215.882048c3.721765-177.001273 181.261297-178.816618 181.261297-178.816618l266.50475-0.285502L448.091458 226.284979 320.298933 226.284979 512.024559 415.775704l191.697997-189.490725L575.907519 226.284979l0-189.504028 258.773671 0.285502c0 0 165.217902-0.14224 188.43672 168.250982 11.041474 184.189999-159.709445 220.490763-159.709445 220.490763s19.425422 272.650727-220.35671 303.734676C437.509449 751.403764 374.978277 552.431084 374.978277 552.431084z"  horiz-adv-x="1040" />

    
    <glyph glyph-name="fenxiang3" unicode="&#58896;" d="M925.097456 403.704784c-16.615423 0-30.037107-13.403265-30.037107-29.948079l0-283.162128c0-36.341696-29.714765-65.896826-66.176189-65.896826L194.455807 24.697751c-36.453237 0-66.151629 29.55513-66.151629 65.896826L128.304178 685.172317c0 36.33351 29.698392 65.911152 66.151629 65.911152l206.794833 0c16.584724 0 30.051433 13.397125 30.051433 29.948079 0 16.528442-13.467733 29.933753-30.051433 29.933753L194.455807 810.965302c-69.621661 0-126.264729-56.410777-126.264729-125.792984l0-594.57774c0-69.356624 56.643068-125.792984 126.264729-125.792984l634.428354 0c69.64622 0 126.281101 56.435337 126.281101 125.792984L955.165262 373.756705C955.165262 390.30152 941.705716 403.704784 925.097456 403.704784L925.097456 403.704784 925.097456 403.704784 925.097456 403.704784zM294.170856 228.175025c-2.987031-16.238846 7.838525-31.843242 24.174586-34.830273 1.822508-0.354064 3.637854-0.481977 5.435803-0.481977 14.240329 0 26.90579 10.085706 29.538757 24.534789 0.249687 1.276063 24.086581 127.245056 107.111506 252.467035 48.309262 72.881914 106.854657 130.835837 173.995823 172.242899 64.103993 39.538505 136.544863 64.144926 216.092593 73.54911l-97.882308-100.614535c-11.541871-11.868305-11.244089-30.847565 0.666172-42.348504 5.838985-5.630231 13.380752-8.455579 20.936845-8.455579 7.822153 0 15.678074 3.051499 21.565155 9.099239l151.540392 155.771763c0.119727 0.103354 0.208754 0.225127 0.320295 0.337691 0.161682 0.176009 0.303922 0.328481 0.465604 0.506537 0.178055 0.176009 0.320295 0.352017 0.506537 0.560772 0 0.016373 0.023536 0.064468 0.056282 0.064468 0.161682 0.186242 0.303922 0.370437 0.433882 0.554632 0.151449 0.186242 0.345877 0.394996 0.481977 0.579191 0.143263 0.208754 0.295735 0.39295 0.441045 0.579191 0.152473 0.240477 0.305969 0.465604 0.506537 0.696872 0.072655 0.161682 0.192382 0.305969 0.287549 0.458441 0.121773 0.159636 0.194428 0.303922 0.305969 0.481977 0.056282 0.048095 0.089028 0.103354 0.127913 0.151449 0.016373 0.040932 0.040932 0.105401 0.056282 0.144286 0.105401 0.169869 0.178055 0.305969 0.305969 0.450255 0.1361 0.287549 0.281409 0.512676 0.449231 0.802272 0.080841 0.144286 0.161682 0.312108 0.2415 0.457418 0.023536 0.056282 0.056282 0.121773 0.089028 0.169869 0.11154 0.225127 0.224104 0.449231 0.337691 0.657986 0.072655 0.178055 0.184195 0.36225 0.240477 0.554632 0.1361 0.2415 0.25685 0.473791 0.354064 0.7552 0.097214 0.208754 0.167822 0.401136 0.25685 0.60989 0.097214 0.25685 0.216941 0.481977 0.273223 0.707105 0.105401 0.233314 0.184195 0.457418 0.273223 0.707105 0.089028 0.208754 0.144286 0.432859 0.208754 0.641613 0.113587 0.249687 0.161682 0.49835 0.2415 0.763386 0.086981 0.225127 0.11154 0.425695 0.159636 0.63445 0.105401 0.248663 0.152473 0.538259 0.208754 0.810459 0.049119 0.161682 0.097214 0.320295 0.144286 0.490164 0 0.064468 0 0.103354 0.024559 0.144286 0.056282 0.248663 0.103354 0.512676 0.159636 0.802272 0.024559 0.1361 0.057305 0.273223 0.072655 0.433882 0.016373 0.103354 0.032746 0.224104 0.049119 0.345877 0.022513 0.192382 0.064468 0.424672 0.119727 0.618077 0.016373 0.1361 0.031722 0.287549 0.031722 0.401136 0.032746 0.216941 0.049119 0.39295 0.072655 0.585331 0.032746 0.1361 0.040932 0.208754 0.040932 0.336668 0 0.097214 0.016373 0.192382 0.016373 0.314155 0 0.056282 0.031722 0.11154 0.056282 0.176009 0 0.265036 0.016373 0.49835 0.016373 0.771573 0 0.031722 0 0.080841 0.014326 0.119727 0 0.161682 0 0.305969 0 0.473791l0 0.016373c0.016373 0.345877 0.016373 0.642636 0.016373 0.947582l0 0.024559 0 0.031722c0 0.49835-0.016373 0.972141-0.016373 1.454118-0.014326 0.040932-0.014326 0.097214-0.014326 0.119727l0 0.26606 0 0.023536c-0.016373 0.370437-0.072655 0.682545-0.089028 1.028423-0.024559 0.089028-0.040932 0.216941-0.040932 0.314155l0 0c0 0.064468 0 0.103354-0.023536 0.143263-0.049119 0.305969-0.064468 0.618077-0.105401 0.932232-0.031722 0.1361-0.056282 0.265036-0.072655 0.409322-0.014326 0.039909-0.022513 0.127913-0.022513 0.161682-0.049119 0.248663-0.080841 0.496304-0.121773 0.785899-0.056282 0.169869-0.086981 0.328481-0.119727 0.490164 0 0.039909 0 0.072655-0.016373 0.103354-0.023536 0.040932-0.023536 0.080841-0.023536 0.12996-0.056282 0.200568-0.089028 0.39295-0.169869 0.593518-0.056282 0.303922-0.1361 0.626263-0.232291 0.939395-0.024559 0.127913-0.049119 0.233314-0.089028 0.378623-0.11154 0.345877-0.216941 0.690732-0.337691 1.067308-0.016373 0.072655-0.040932 0.127913-0.056282 0.208754-0.089028 0.248663-0.194428 0.49835-0.273223 0.779759 0 0-0.040932 0.031722-0.040932 0.086981-0.016373 0.080841-0.095167 0.208754-0.119727 0.289596 0 0.064468-0.016373 0.080841-0.056282 0.161682-0.113587 0.248663-0.178055 0.512676-0.320295 0.771573-0.057305 0.143263-0.12996 0.320295-0.194428 0.449231 0 0.024559-0.031722 0.039909-0.031722 0.039909-0.105401 0.273223-0.225127 0.554632-0.345877 0.818645l-0.016373 0c-0.281409 0.587378-0.554632 1.150196-0.923022 1.735527l0 0c-0.225127 0.401136-0.474814 0.796132-0.690732 1.212618-0.024559 0.024559-0.064468 0.072655-0.097214 0.105401-0.127913 0.233314-0.289596 0.465604-0.449231 0.666172l-0.040932 0.064468c-0.056282 0.113587-0.103354 0.225127-0.200568 0.322341-0.080841 0.119727-0.161682 0.232291-0.25685 0.352017-0.072655 0.080841-0.119727 0.169869-0.192382 0.249687-0.064468 0.103354-0.105401 0.176009-0.194428 0.265036-0.064468 0.080841-0.11154 0.152473-0.176009 0.25685-0.152473 0.200568-0.320295 0.401136-0.481977 0.626263-0.089028 0.080841-0.176009 0.184195-0.273223 0.297782-0.031722 0.039909-0.064468 0.127913-0.1361 0.159636-0.200568 0.265036-0.401136 0.490164-0.618077 0.723477-0.072655 0.064468-0.11154 0.119727-0.160659 0.184195-0.287549 0.314155-0.618077 0.618077-0.86674 0.924045-0.064468 0.022513-0.080841 0.048095-0.11154 0.078795-0.314155 0.314155-0.660032 0.642636-0.972141 0.956791-0.016373 0.014326-0.016373 0.014326-0.039909 0.022513-0.354064 0.305969-0.684592 0.593518-1.044796 0.883113 0 0.016373-0.040932 0.056282-0.056282 0.056282-0.354064 0.273223-0.698918 0.562818-1.044796 0.812505-0.056282 0.031722-0.089028 0.064468-0.152473 0.11154-0.305969 0.216941-0.626263 0.442068-0.955768 0.682545-0.089028 0.064468-0.176009 0.127913-0.289596 0.192382-0.159636 0.105401-0.303922 0.208754-0.490164 0.314155-0.119727 0.095167-0.240477 0.151449-0.384763 0.240477-0.144286 0.080841-0.297782 0.184195-0.433882 0.281409-0.11154 0.072655-0.25685 0.152473-0.401136 0.233314-0.127913 0.095167-0.273223 0.143263-0.433882 0.224104-0.143263 0.089028-0.328481 0.194428-0.512676 0.273223-0.248663 0.1361-0.481977 0.249687-0.738827 0.38681-0.192382 0.127913-0.394996 0.192382-0.60989 0.281409-0.216941 0.11154-0.481977 0.232291-0.707105 0.328481-0.216941 0.095167-0.449231 0.176009-0.666172 0.281409-0.216941 0.080841-0.458441 0.159636-0.674359 0.265036-0.249687 0.080841-0.490164 0.167822-0.7552 0.273223-0.202615 0.064468-0.394996 0.1361-0.611937 0.200568-0.11154 0.039909-0.248663 0.064468-0.376577 0.127913L713.958688 851.465714c-15.781428 5.227048-32.815383-3.325745-38.010709-19.009959-5.229095-15.684214 3.323699-32.647561 19.064194-37.859259l88.785116-29.313629c-65.253166-14.055111-125.799124-38.172391-181.01468-72.240301-74.617441-46.01808-139.388631-109.985974-192.546318-190.152804C320.529177 367.571842 295.222815 233.821629 294.170856 228.175025L294.170856 228.175025 294.170856 228.175025 294.170856 228.175025zM294.170856 228.175025"  horiz-adv-x="1024" />

    
    <glyph glyph-name="jiaotongyinxing" unicode="&#59079;" d="M809.896714 128.156054c-60.409858-1.876744-116.209722-3.827165-176.563298-5.782703-38.184671-161.779593-354.464057-118.091582-319.257208 87.230714 17.73185 121.601522 183.015244 174.74693 285.479917 82.82845 22.548552-25.245987 33.55421-48.759517 40.856523-100.342336 50.608631 2.028193 118.884644 3.982708 169.484066 5.860475 2.597151 261.585717-296.151977 394.455887-520.178263 267.373537C74.975599 343.719598 99.804077-27.05289 324.767711-121.787508l0-5.865591C202.067158-125.222747 67.511603-30.663114 38.159088 81.651904l1.720178 603.25333c97.326653 65.840544 204.971301 144.859225 302.498522 210.747865 3.809769-2.000564 7.693216-3.866051 11.620665-5.866614-6.67605-90.856287-2.441609-240.748133 2.989077-350.252129 60.977793 58.934251 102.157681 120.555703 207.523427 140.997268 67.884087 13.161764 132.802632 5.190209 173.818791-8.682753 307.866786-104.923678 327.040475-500.552274 65.834404-636.69907-5.877871 0-18.710131-11.497868-28.196179-13.352099 0 1.949398 5.966898 10.380418 10.759041 19.134803C794.415115 70.015889 802.213731 99.083925 809.896714 128.156054L809.896714 128.156054 809.896714 128.156054zM809.896714 128.156054"  horiz-adv-x="1024" />

    
    <glyph glyph-name="iconlikai14" unicode="&#58946;" d="M512 779.636364C293.496242 779.636364 116.363636 602.503758 116.363636 384s177.132606-395.636364 395.636364-395.636364 395.636364 177.132606 395.636364 395.636364S730.503758 779.636364 512 779.636364zM512 43.752727C324.086949 43.752727 171.752727 196.086949 171.752727 384S324.086949 724.247273 512 724.247273 852.247273 571.913051 852.247273 384 699.913051 43.752727 512 43.752727zM539.694545 411.694545 539.694545 625.338182 484.305455 625.338182 484.305455 411.694545 484.305455 356.305455 484.305455 356.305455 539.694545 356.305455 539.694545 356.305455 753.338182 356.305455 753.338182 411.694545Z"  horiz-adv-x="1024" />

    
    <glyph glyph-name="jiansheyinxing" unicode="&#59022;" d="M924.689157 367.195266 754.813165 367.195266c0 0-12.20702 0-17.292851-2.073218-3.051499-1.036609-13.224186-9.329483-13.224186-9.329483l-209.547527-213.533304c-4.068665-3.109828-9.154497-3.109828-13.224186 0L278.753725 369.268484c-3.051499 3.109828-3.051499 9.329483 0 12.43931l223.788879 227.009224c3.051499 4.146437 9.155521 4.146437 12.20702 0L711.071941 408.657586c0 0 8.137331-9.329483 17.292851-12.438287 9.154497-2.073218 22.378683 9.329483 22.378683 9.329483l90.532923 94.327342L576.798818 767.311059c-55.94722 57.011458-116.980271 51.828412-141.393287 48.718585C222.806505 779.749346 69.206198 594.203466 69.206198 373.413897c0-248.776993 202.427362-447.797769 439.439404-447.797769 232.943376 0 428.249551 190.728926 439.439404 431.213046 0 3.109828 1.017166 5.183046-5.085832 9.329483C936.895153 370.305093 924.689157 367.195266 924.689157 367.195266L924.689157 367.195266zM646.987391 774.567323l231.92621-234.264465 64.084551 63.231113c0 0 6.102998 10.366092 8.137331 19.694551 1.017166 5.183046-9.154497 13.474896-9.154497 13.474896L800.587698 781.822564C667.331741 917.61325 518.817266 852.309942 518.817266 852.309942S580.868507 851.273333 646.987391 774.567323L646.987391 774.567323z"  horiz-adv-x="1024" />

    
    <glyph glyph-name="gerenziliao1" unicode="&#58942;" d="M614.873305 330.349734 409.902238 330.349734c-190.487612 0-345.403212-152.554993-345.403212-340.117331l0-20.183092c0-98.047152 152.443059-98.047152 345.403212-98.047152l204.971067 0c185.363635 0 345.437192 0 345.437192 98.047152l0 20.183092C960.301502 177.759762 805.346925 330.349734 614.873305 330.349734zM502.142816 356.295426c150.833009 0 273.565596 120.907664 273.565596 269.551964 0 148.642301-122.732588 269.547967-273.565596 269.547967-150.829011 0-273.563597-120.938646-273.563597-269.547967C228.579218 477.243067 351.313805 356.295426 502.142816 356.295426z"  horiz-adv-x="1024" />

    
    <glyph glyph-name="fenxiang2" unicode="&#59283;" d="M807.051923 13.769864c0-33.584909-28.29237-61.826114-61.942771-61.826114l-621.456924-1.011027c-33.650401 0-60.926628 27.221991-60.926628 60.801784l1.014096 620.256586c0 33.586956 28.293393 61.824067 61.942771 61.824067l309.714877 0 0 61.822021L125.681444 755.637182c-67.297732 0-123.883495-68.64031-123.883495-135.803989l0-608.097662c0-67.162656 54.555523-121.610732 121.854279-121.610732l609.272417 0c67.297732 0 136.070049 56.476269 136.070049 123.645065L868.994694 168.322869l-61.942771 0L807.051923 13.769864zM1015.352039 556.797531 717.440999 871.161289c-11.812023 11.288091-30.963199 11.288091-42.775222 0-6.801916-6.501064-9.217942-15.266705-8.18645-23.736611l0-169.287591-0.001023 0c-513.281179-9.504468-447.882704-509.811148-447.882704-509.811148s253.205862 196.372459 447.883727 222.453465l0-168.400385c-1.031493-8.472975 1.384533-17.237593 8.18645-23.734564 0.075725-0.073678 0.179079-0.092098 0.258896-0.162706 5.428639-5.418406 12.972453-8.845459 21.412682-8.845459 9.292644 0 17.262152 4.328585 22.738887 10.735505l296.275797 312.64051c6.300496 6.024204 8.982582 14.011108 8.562003 21.892613C1024.334621 542.789493 1021.653559 550.776398 1015.352039 556.797531zM726.19743 293.899936 726.19743 419.518958c0 0-0.001023 0.002047-0.001023 0.004093L726.196407 448.249303c0 0-276.91382 28.54308-454.629361-172.111916 0.932232 108.003829 138.627291 338.239538 349.245196 344.526731 15.516392 0.464581 30.689976 1.925862 45.667086 0l59.71708 0 0 28.727275c0 0.002047 0.001023 0.004093 0.001023 0.00614L726.19743 775.907854 954.584024 534.900825 726.19743 293.899936z"  horiz-adv-x="1040" />

    
    <glyph glyph-name="editing" unicode="&#58999;" d="M989.845 502.963c-1.478 13.473-12.889 23.96-26.755 23.96-13.865 0-25.276-10.487-26.752-23.96h-0.173v-467.327c0-42.895-34.894-77.787-77.788-77.787h-691.11c-42.89 0-77.786 34.891-77.786 77.787v696.722c0 42.893 34.896 77.788 77.786 77.788l463.972 0.038c14.528 0.394 26.191 12.265 26.191 26.888s-11.663 26.496-26.191 26.888v0.039h-463.972c-72.587 0-131.639-59.054-131.639-131.639v-696.724c0-72.586 59.053-131.637 131.639-131.637h691.11c72.588 0 131.639 59.052 131.639 131.637v467.326h-0.172zM296.383 220.952l-0.122-0.502c-2.204-9.35-4.103-26.841 7.958-38.894 7.478-7.491 17.050-9.599 25.465-9.599 5.136 0 9.846 0.788 13.387 1.618l147.077 38.835 468.748 468.748c16.388 16.387 25.413 38.174 25.413 61.347 0 23.175-9.025 44.963-25.413 61.349l-32.439 32.439c-33.831 33.827-88.87 33.836-122.703 0.001l-468.792-468.793-38.578-146.551zM378.206 323.259l67.73-67.722-91.081-23.352 23.351 91.074zM410.621 367.009l366.34 366.337 78.983-78.982-366.339-366.339-78.983 78.983zM888.374 798.219l32.441-32.441c12.832-12.832 12.832-33.709 0-46.543l-26.796-26.792-78.978 78.982 26.792 26.794c12.834 12.836 33.715 12.828 46.54 0.001z"  horiz-adv-x="1024" />

    
    <glyph glyph-name="shichang1" unicode="&#58993;" d="M512-89.966779c-261.083274 0-473.965755 212.882482-473.965755 473.966779S250.916726 857.966779 512 857.966779s473.965755-212.883505 473.965755-473.966779C985.965755 122.916726 773.083274-89.966779 512-89.966779zM512 805.74951c-232.965889 0-421.74951-188.783621-421.74951-421.74951 0-232.965889 188.783621-421.750533 421.74951-421.750533s421.74951 188.783621 421.74951 421.750533C933.74951 616.965889 744.965889 805.74951 512 805.74951zM845.382926 331.782731 463.799208 331.782731 463.799208 713.36645 512 713.36645 512 379.9825 845.382926 379.9825Z"  horiz-adv-x="1024" />

    
    <glyph glyph-name="zhongguoyinhangbank1193437easyiconnet" unicode="&#59024;" d="M436.8768 819.7152C132.5632 765.0944-27.3984 425.6672 128.6592 160.368c163.8624-280.9056 569.616-296.512 752.9856-23.408C1096.2272 460.7808 815.3184 889.9424 436.8768 819.7152zM460.2848 651.952c0-105.3376 3.904-93.6352-50.7168-97.536-89.7344-7.8016-105.3408-31.2128-109.2416-144.3552-3.9008-175.568 7.8016-202.8768 105.3376-210.6784 62.4256-7.8016 58.5248-3.9008 58.5248-97.5328 0-89.7344 0-89.7344-62.4256-66.3296C120.8576 125.2576 58.4352 495.8944 292.5216 675.3632c42.9184 35.1104 124.848 70.224 156.0608 70.224l11.7024 0L460.2848 651.952zM612.4448 737.7856c261.4016-74.128 351.1328-409.6544 163.8624-608.6304-54.624-54.6208-156.0608-109.2448-198.976-105.344l-7.8048 3.9072-3.9008 74.128c0 93.6352-3.9008 85.8272 42.9152 89.7312 97.5392 7.8016 109.2416 31.2128 113.1392 171.6672 0 156.0608-15.6 183.3696-113.1392 191.1712l-39.0144 3.9008-3.9008 11.7056c-3.9008 15.6064-3.9008 167.7632 0 171.664C569.5264 745.5872 581.232 745.5872 612.4448 737.7856zM624.1472 468.5824c11.7056-7.8016 11.7056-156.0576 0-167.7632-11.7024-11.6992-218.4832-11.6992-226.2848 0-3.9008 7.8048-3.9008 159.9616 0 167.7632C405.664 472.4864 616.3424 472.4864 624.1472 468.5824z"  horiz-adv-x="1024" />

    
    <glyph glyph-name="gongshangyinhangicbcbank1193388easyiconnet" unicode="&#59030;" d="M480.587093 845.47584C128.590507 820.5312-67.269973 426.0352 125.81888 131.321173c194.93888-297.485653 640.249173-271.619413 800.078507 48.039253C1084.801707 496.25088 834.433707 870.42048 480.587093 845.47584zM551.727787 784.500053c337.21344-34.184533 483.188053-443.460267 244.82816-684.591787-193.088853-194.935467-524.75904-139.506347-645.789013 108.09344C12.182187 489.782613 239.455573 816.83456 551.727787 784.500053zM244.998827 409.40544l182.00576 0 0-60.975787L244.998827 348.429653l0.925013-224.50176 250.371413-0.9216 0 65.594027L317.986133 188.60032l0.925013 85.920427 177.384107 0 0 200.482133L317.986133 475.00288l0 69.290667 178.30912 0L496.295253 618.202453 244.998827 618.202453 244.998827 409.40544zM527.70816 544.293547l178.305707 0 0-69.290667-178.305707 0 0-200.482133 178.305707 0 0-84.992-178.305707-0.925013 0-65.594027 251.293013 0.9216 0 224.50176L596.992 348.433067l0 60.975787 182.00576 0L778.99776 618.202453l-251.293013 0L527.704747 544.293547z"  horiz-adv-x="1024" />

    
    <glyph glyph-name="jiansheyinhangbank1193390easyiconnet" unicode="&#59032;" d="M537.234773 797.2352c-30.5152-3.812693-30.5152-7.6288-11.444907-11.441493 61.0304-26.702507 118.244693-80.104107 213.6064-205.9776 106.8032-141.131093 99.1744-137.3184 160.2048-80.100693 45.769387 38.144 45.769387 38.144-22.8864 118.244693C739.396267 781.9776 678.365867 816.308907 537.234773 797.2352zM426.615467 770.536107C102.393173 709.505707-19.667627 316.624213 213.009067 83.94752c194.536107-194.532693 518.7584-141.134507 648.448 106.799787 22.8864 41.960107 45.769387 129.6896 38.144 133.505707-7.625387 7.625387-171.646293 22.8864-202.164907 22.8864-11.444907 0-22.8864-7.6288-61.0304-38.147413-106.8032-80.100693-156.388693-118.248107-160.2048-118.248107-144.943787 175.4624-164.017493 198.3488-164.017493 202.164907 194.532693 156.388693 205.9776 164.017493 205.9776 164.017493 125.873493-152.576 164.020907-198.3488 164.020907-198.3488 7.625387 0 110.619307 72.475307 125.873493 87.732907l7.632213 7.6288c-64.846507 87.729493-106.806613 141.131093-160.208213 205.974187C571.562667 766.72 521.97376 789.6064 426.615467 770.536107z"  horiz-adv-x="1024" />

    
    <glyph glyph-name="wodejifen" unicode="&#59124;" d="M197.973333 563.493263C197.973332 505.673373 257.997634 452.245593 355.435667 423.335649 452.873697 394.425706 572.922303 394.425706 670.360334 423.335649 767.798368 452.245593 827.822667 505.673373 827.822667 563.493263 827.822667 652.875066 686.82609 725.333333 512.898 725.333333 338.969909 725.333333 197.973333 652.875066 197.973333 563.493263L197.973333 563.493263ZM512.898 352.962956C384.26168 352.962956 273.643227 392.598723 224.753124 449.401313 207.539559 429.401696 197.973333 407.275264 197.973333 383.999597 197.973333 294.617842 338.969992 222.159527 512.898 222.159527 686.826008 222.159527 827.822667 294.617846 827.822667 383.999597 827.822667 407.275264 818.257248 429.401696 801.042876 449.401313 752.152774 392.598723 641.534321 352.962956 512.898 352.962956L512.898 352.962956ZM512.898 169.006933C382.582955 169.006933 270.757241 209.683139 222.868086 267.67687 206.84083 248.267988 197.973334 226.919267 197.973334 204.506737 197.973334 115.124985 338.969993 42.666667 512.898 42.666667 686.826008 42.666667 827.822667 115.124985 827.822667 204.506737 827.822667 226.920073 818.955172 248.267988 802.927916 267.67687 755.038758 209.683139 643.213046 169.006933 512.898 169.006933L512.898 169.006933Z"  horiz-adv-x="1024" />

    
    <glyph glyph-name="xinxi2" unicode="&#58920;" d="M940.802 119.43h-772.375c-8.391 0-15.247 6.856-15.247 15.247v487.799c0 8.391 6.856 15.247 15.247 15.247h772.375c8.391 0 15.247-6.856 15.247-15.247v-487.799c0-8.493-6.856-15.247-15.247-15.247zM183.675 149.924h741.881v457.305h-741.881v-457.305zM554.615 363.279c-2.865 0-5.628 0.819-8.186 2.354l-386.085 243.849c-7.163 4.502-9.21 13.917-4.707 21.080 4.502 7.163 13.917 9.21 20.977 4.809l378.001-238.732 378.001 238.732c7.163 4.4 16.577 2.354 20.977-4.809 4.502-7.061 2.354-16.475-4.707-21.080l-386.085-243.849c-2.558-1.535-5.321-2.354-8.186-2.354z"  horiz-adv-x="1121" />

    
    <glyph glyph-name="zhibo1" unicode="&#59073;" d="M889.87014 607.345788 723.539904 607.345788c-11.484565 0-20.790512-9.31004-20.790512-20.790512 0-11.482519 9.305947-20.791535 20.790512-20.791535l166.330236 0c11.480472 0 20.788465-9.307993 20.788465-20.795629l0-540.563546c0-11.484565-9.307993-20.788465-20.788465-20.788465L141.390217-16.3839c-11.478426 0-20.786419 9.3039-20.786419 20.788465L120.603799 544.969135c0 11.486612 9.307993 20.795629 20.786419 20.795629l374.24252 0c1.108241 0 2.188852 0.11154 3.251044 0.279363 9.017374-2.350534 18.898419 1.251503 23.791869 9.353019l157.25044 198.719924c5.823636 9.642614 2.365884 21.976524-7.717775 27.542286-10.085706 5.567809-22.978341 2.26253-28.801976-7.381108L515.482311 607.345788l-45.518706 0L284.691971 846.750319c-5.821589 9.642614-18.720364 12.944823-28.801976 7.381108-10.085706-5.569856-13.539364-17.896602-7.717775-27.544333l169.669284-219.241306L141.390217 607.345788c-34.44244 0-62.370513-27.928073-62.370513-62.376653l0-540.563546c0-34.44858 27.928073-62.370513 62.370513-62.370513l748.479923 0c34.44858 0 62.372559 27.921933 62.372559 62.370513L952.242699 544.969135C952.242699 579.417715 924.31872 607.345788 889.87014 607.345788zM456.024128 438.151317c-10.194176 7.486508-23.562649-0.783853-23.562649-17.807574 0-17.283642 0-320.547597 0-332.467067 0-15.458063 12.096503-26.955932 24.048719-17.913998 9.584286 7.237845 201.065342 153.395646 217.407542 165.895331 10.730389 8.214079 10.55131 27.795043 0 36.018332C662.154835 281.04414 469.942115 427.946908 456.024128 438.151317z"  horiz-adv-x="1024" />

    
    <glyph glyph-name="fanhui" unicode="&#59048;" d="M942.370611 156.744192c-9.64608 0-18.099917 6.794752-20.044288 16.409702-0.273203 1.290342-13.681152 62.485094-70.839194 122.607411-72.793805 76.570931-185.439846 118.69225-326.665011 122.379264l0-166.336376c0-7.69321-4.313395-14.734541-11.165798-18.23017-6.851277-3.494605-15.086182-2.855014-21.314253 1.660826L99.968819 519.679181c-5.304013 3.844608-8.446669 9.996698-8.453837 16.54784-0.007168 6.550221 3.122278 12.709478 8.418099 16.565248L492.306227 838.536192c6.224998 4.532224 14.467072 5.189222 21.329613 1.696666 6.863565-3.491533 11.186176-10.540032 11.186176-18.24041l0-176.618557c25.276723-0.931226 69.372723-4.680602 120.492032-18.246554 81.366426-21.593805 148.922778-59.281101 200.796262-112.014131 79.828275-81.153331 119.105434-194.954138 116.740506-338.240512-0.17193-10.45719-8.202138-19.102106-18.617754-20.044493C943.608832 156.771738 942.985626 156.744192 942.370611 156.744192zM504.355123 459.33783c90.70039 0 171.124224-14.281216 239.035699-42.445722 55.036723-22.824858 102.001152-54.739763 139.585741-94.857421 12.340531-13.172019 22.843187-26.345062 31.769805-39.064678-13.623808 82.952294-46.350541 151.116698-97.818726 203.440435-110.771302 112.60969-274.788454 118.314701-306.541875 118.314701-3.38729 0-5.247693-0.06656-5.266125-0.06656-5.561856-0.198554-10.961101 1.862451-14.961357 5.719245-4.000256 3.857818-6.270054 9.174938-6.270054 14.731469L483.88823 781.769352 146.800333 536.286413l337.087795-244.365517L483.888128 438.871725C483.888128 450.174157 493.051187 459.33783 504.355123 459.33783z"  horiz-adv-x="1024" />

    
    <glyph glyph-name="xiayiye1" unicode="&#59006;" d="M314.217936-62.765253 263.566326-12.113643 659.894863 384.214894 263.566326 780.543432 314.217936 831.195042 761.19706 384.214894Z"  horiz-adv-x="1024" />

    
    </font>
</defs>
</svg>
